<?xml version="1.0" encoding="UTF-8"?>
<svg id="_レイヤー_2" data-name="レイヤー 2" xmlns="http://www.w3.org/2000/svg" viewBox="0 0 200 100">
  <defs>
    <style>
      .cls-1 {
        fill: #06a955;
      }

      .cls-1, .cls-2, .cls-3 {
        stroke-width: 0px;
      }

      .cls-2 {
        fill: #06c755;
      }

      .cls-3 {
        fill: #fff;
      }
    </style>
  </defs>
  <g id="_フッター" data-name="フッター">
    <g>
      <rect class="cls-2" width="200" height="100"/>
      <g>
        <g>
          <path class="cls-3" d="m76.32,44.82c0-12.57-12.4-22.8-27.63-22.8s-27.63,10.23-27.63,22.8c0,11.27,9.83,20.71,23.11,22.49.9.2,2.12.6,2.43,1.39.28.71.18,1.82.09,2.54,0,0-.32,1.98-.39,2.41-.12.71-.56,2.78,2.39,1.51,2.95-1.26,15.91-9.53,21.71-16.31h0c4-4.47,5.92-9,5.92-14.03Z"/>
          <g>
            <path class="cls-1" d="m67.13,52.08h-7.76c-.29,0-.53-.24-.53-.54h0v-12.25h0c0-.31.24-.55.53-.55h7.76c.29,0,.53.24.53.54v1.99c0,.3-.24.54-.53.54h-5.28v2.07h5.28c.29,0,.53.24.53.54v1.99c0,.3-.24.54-.53.54h-5.28v2.07h5.28c.29,0,.53.24.53.54v1.99c0,.3-.24.54-.53.54Z"/>
            <path class="cls-1" d="m38.41,52.08c.29,0,.53-.24.53-.54v-1.99c0-.29-.24-.54-.53-.54h-5.28v-9.73c0-.3-.24-.54-.53-.54h-1.96c-.29,0-.53.24-.53.54v12.25h0c0,.31.24.55.53.55h7.76Z"/>
            <path class="cls-1" d="m43.08,38.75h-1.96c-.29,0-.53.24-.53.54v12.26c0,.3.24.54.53.54h1.96c.29,0,.53-.24.53-.54v-12.26c0-.3-.24-.54-.53-.54Z"/>
            <path class="cls-1" d="m56.43,38.75h-1.96c-.29,0-.53.24-.53.54v7.28l-5.52-7.58s-.03-.04-.04-.06c0,0,0,0,0,0-.01-.01-.02-.02-.03-.03,0,0,0,0,0,0,0,0-.02-.02-.03-.02,0,0,0,0-.01-.01,0,0-.02-.01-.03-.02,0,0-.01,0-.02,0,0,0-.02-.01-.03-.02,0,0-.01,0-.02,0-.01,0-.02,0-.03-.01,0,0-.01,0-.02,0-.01,0-.02,0-.03-.01,0,0-.01,0-.02,0-.01,0-.02,0-.03,0,0,0-.01,0-.02,0,0,0-.02,0-.03,0,0,0-.02,0-.03,0,0,0-.01,0-.02,0h-1.95c-.29,0-.53.24-.53.54v12.26c0,.3.24.54.53.54h1.96c.29,0,.53-.24.53-.54v-7.28l5.52,7.59c.04.05.08.1.14.14,0,0,0,0,0,0,.01,0,.02.01.03.02,0,0,.01,0,.02,0,0,0,.02,0,.03.01,0,0,.02,0,.03.01,0,0,.01,0,.02,0,.01,0,.02,0,.04.01,0,0,0,0,0,0,.04.01.09.02.14.02h1.95c.29,0,.53-.24.53-.54v-12.26c0-.3-.24-.54-.53-.54Z"/>
          </g>
        </g>
        <g>
          <g>
            <path class="cls-3" d="m95.64,27c.34.02.67.03,1,.03.33,0,.67-.01,1.02-.03.3-.01.68-.03,1.12-.07s.92-.07,1.42-.1c.5-.04,1-.08,1.5-.12.5-.04.97-.08,1.4-.1.43-.03.78-.04,1.06-.04.67,0,1.25.11,1.76.33.51.22.91.59,1.21,1.11s.44,1.24.44,2.14c0,.74-.03,1.54-.1,2.4-.07.86-.18,1.69-.33,2.47-.15.79-.36,1.45-.64,2-.3.65-.71,1.1-1.24,1.35-.52.25-1.14.38-1.86.38-.36,0-.75-.03-1.16-.08-.41-.06-.78-.12-1.1-.18l-.42-2.47c.25.06.52.12.82.19.29.06.58.11.85.15.27.04.49.06.65.06.31,0,.59-.06.83-.18.24-.12.43-.33.58-.63.18-.36.32-.83.42-1.4s.19-1.2.25-1.86c.06-.67.08-1.31.08-1.92,0-.5-.07-.87-.21-1.1-.14-.24-.34-.4-.61-.48-.27-.08-.61-.12-1.01-.12-.28,0-.66.02-1.16.07-.5.04-1.02.09-1.57.15-.55.06-1.07.12-1.56.18-.48.06-.86.11-1.12.13-.26.05-.61.1-1.03.16-.42.06-.78.11-1.07.16l-.23-2.55Zm7.66-3.84c-.06.24-.12.5-.18.78-.06.28-.11.54-.16.78-.05.27-.11.58-.19.93-.08.34-.15.69-.22,1.03-.07.34-.14.68-.22,1-.13.54-.28,1.16-.47,1.87-.19.71-.41,1.48-.66,2.29-.25.82-.53,1.64-.85,2.46s-.65,1.63-1,2.41c-.35.78-.73,1.48-1.13,2.11l-2.45-.97c.44-.59.85-1.25,1.24-1.98.38-.73.73-1.48,1.05-2.26.31-.77.59-1.54.84-2.29s.46-1.45.63-2.1.31-1.21.42-1.67c.18-.85.31-1.67.42-2.45.1-.79.14-1.53.13-2.23l2.81.28Zm6.49,1.76c.3.4.61.9.93,1.51s.63,1.25.94,1.92c.31.67.59,1.32.85,1.95.26.62.46,1.16.59,1.59l-2.4,1.1c-.13-.52-.3-1.11-.52-1.75-.22-.64-.47-1.3-.75-1.97-.28-.67-.58-1.3-.91-1.9-.32-.6-.65-1.1-.99-1.5l2.24-.96Z"/>
            <path class="cls-3" d="m125.51,24.04c-.09.12-.19.27-.29.42s-.21.31-.31.46c-.23.34-.47.73-.75,1.17-.27.44-.55.91-.84,1.41-.29.49-.57.98-.84,1.47-.27.49-.53.94-.76,1.35.35-.2.71-.34,1.08-.43.36-.09.73-.13,1.09-.13.7,0,1.26.21,1.67.63.41.42.63,1.02.67,1.81.01.27.02.61.02.99s0,.77,0,1.16c0,.39.02.71.05.97.04.36.17.62.41.78s.51.23.82.23c.4,0,.77-.12,1.1-.36.33-.24.63-.56.9-.98.26-.42.49-.89.69-1.42.19-.53.36-1.08.5-1.66l2.04,1.65c-.33,1.06-.74,1.99-1.25,2.8s-1.12,1.43-1.84,1.87-1.57.67-2.54.67c-.69,0-1.27-.12-1.74-.37s-.81-.56-1.04-.96c-.23-.39-.35-.82-.38-1.28-.03-.34-.04-.71-.05-1.12,0-.41-.01-.81-.02-1.21s-.02-.71-.05-.96c-.03-.32-.13-.58-.32-.77-.19-.19-.45-.28-.79-.28-.42,0-.81.13-1.19.39-.38.26-.72.61-1.03,1.03s-.58.89-.8,1.4c-.13.28-.26.6-.4.97-.14.37-.27.76-.4,1.16-.13.4-.25.78-.36,1.13-.11.36-.21.66-.28.91l-2.66-.9c.24-.62.53-1.34.88-2.14s.73-1.65,1.14-2.54.84-1.77,1.26-2.64c.43-.87.84-1.7,1.23-2.48.39-.78.74-1.46,1.05-2.04.31-.58.54-1.02.71-1.32.13-.25.27-.53.43-.84.16-.31.33-.67.49-1.07l2.68,1.07Z"/>
            <path class="cls-3" d="m143.32,23.01c-.08.25-.15.56-.23.92-.08.36-.13.64-.17.84-.09.42-.2.94-.33,1.55-.13.61-.28,1.26-.43,1.95s-.32,1.34-.48,1.97c-.16.66-.36,1.38-.6,2.14s-.49,1.55-.76,2.34c-.27.79-.54,1.55-.82,2.27-.28.72-.55,1.36-.81,1.92l-2.62-.88c.28-.47.57-1.05.89-1.73.31-.68.62-1.42.91-2.2.3-.79.57-1.57.82-2.34.25-.77.46-1.49.64-2.15.13-.44.25-.89.36-1.35.11-.46.21-.91.3-1.35s.17-.85.24-1.23c.07-.38.12-.71.16-1,.04-.35.06-.7.08-1.05s0-.63-.02-.84l2.89.22Zm-4.81,2.79c.77,0,1.57-.04,2.4-.11.83-.08,1.67-.18,2.51-.32s1.68-.3,2.51-.49v2.34c-.78.17-1.61.33-2.49.45-.88.12-1.75.22-2.6.29-.86.07-1.64.1-2.36.1-.45,0-.86,0-1.23-.03s-.72-.03-1.06-.05l-.06-2.34c.49.05.91.09,1.26.11s.72.04,1.11.04Zm6.94,7.59c-.08.26-.14.53-.19.81-.05.28-.08.53-.08.74,0,.2.04.39.13.56.09.18.23.33.42.46.19.13.45.23.78.31s.75.11,1.25.11c.64,0,1.29-.03,1.93-.1.65-.07,1.31-.17,1.99-.29l-.09,2.4c-.53.06-1.11.12-1.75.18-.64.06-1.34.08-2.09.08-1.58,0-2.8-.26-3.63-.78-.84-.52-1.25-1.25-1.25-2.2,0-.42.04-.86.11-1.29.08-.44.15-.84.23-1.22l2.25.22Zm-1.02-4.72c.53-.05,1.11-.09,1.75-.13.64-.04,1.26-.06,1.87-.06.54,0,1.09.01,1.65.04.56.03,1.12.07,1.67.13l-.06,2.25c-.47-.06-.98-.12-1.54-.16s-1.13-.07-1.71-.07c-.64,0-1.26.02-1.86.05s-1.19.08-1.78.16v-2.21Z"/>
            <path class="cls-3" d="m165.11,24.04c-.09.12-.19.27-.29.42s-.21.31-.31.46c-.23.34-.47.73-.75,1.17-.27.44-.55.91-.84,1.41-.29.49-.57.98-.84,1.47-.27.49-.53.94-.76,1.35.35-.2.71-.34,1.08-.43.36-.09.73-.13,1.09-.13.7,0,1.26.21,1.67.63.41.42.63,1.02.67,1.81.01.27.02.61.02.99s0,.77,0,1.16c0,.39.02.71.05.97.04.36.17.62.41.78s.51.23.82.23c.4,0,.77-.12,1.1-.36.33-.24.63-.56.9-.98.26-.42.49-.89.69-1.42.19-.53.36-1.08.5-1.66l2.04,1.65c-.33,1.06-.74,1.99-1.25,2.8s-1.12,1.43-1.84,1.87-1.57.67-2.54.67c-.69,0-1.27-.12-1.74-.37s-.81-.56-1.04-.96c-.23-.39-.35-.82-.38-1.28-.03-.34-.04-.71-.05-1.12,0-.41-.01-.81-.02-1.21s-.02-.71-.05-.96c-.03-.32-.13-.58-.32-.77-.19-.19-.45-.28-.79-.28-.42,0-.81.13-1.19.39-.38.26-.72.61-1.03,1.03s-.58.89-.8,1.4c-.13.28-.26.6-.4.97-.14.37-.27.76-.4,1.16-.13.4-.25.78-.36,1.13-.11.36-.21.66-.28.91l-2.66-.9c.24-.62.53-1.34.88-2.14s.73-1.65,1.14-2.54.84-1.77,1.26-2.64c.43-.87.84-1.7,1.23-2.48.39-.78.74-1.46,1.05-2.04.31-.58.54-1.02.71-1.32.13-.25.27-.53.43-.84.16-.31.33-.67.49-1.07l2.68,1.07Z"/>
          </g>
          <rect class="cls-3" x="87.97" y="47.27" width="93.03" height="29.97"/>
          <g>
            <path class="cls-2" d="m93.55,56.05h7.13v1.78h-7.13v-1.78Zm.85,7.79h1.91v6.44h-1.91v-6.44Zm.04-5.15h5.7v1.71h-5.7v-1.71Zm0,2.57h5.7v1.69h-5.7v-1.69Zm.08-7.72h5.58v1.69h-5.58v-1.69Zm.91,10.3h4.75v5.71h-4.75v-1.78h2.81v-2.15h-2.81v-1.78Zm10.24-8.69c-.31.56-.72,1.15-1.21,1.76-.49.61-1.03,1.2-1.63,1.75-.6.56-1.22,1.04-1.88,1.45-.13-.29-.3-.62-.51-.98s-.42-.68-.62-.93c.67-.38,1.3-.85,1.91-1.43.61-.58,1.16-1.2,1.65-1.86.49-.66.88-1.29,1.17-1.87h2.09c.4.66.87,1.31,1.41,1.95.53.64,1.1,1.21,1.71,1.71.6.5,1.21.91,1.83,1.23-.21.26-.43.58-.65.96-.22.38-.41.73-.56,1.06-.6-.36-1.2-.81-1.79-1.35-.59-.54-1.14-1.1-1.64-1.7s-.93-1.18-1.28-1.74Zm3.15,8.47l2.04.88c-.97,1.46-2.22,2.69-3.74,3.69-1.53,1-3.2,1.8-5.03,2.4-.15-.3-.36-.63-.62-.99-.26-.36-.53-.67-.79-.94,1.13-.29,2.22-.67,3.26-1.15,1.04-.48,1.98-1.04,2.82-1.69.84-.64,1.52-1.38,2.07-2.2Zm-3.19-5.66l1.96.77c-.39.51-.84,1-1.34,1.47-.5.47-1.03.9-1.59,1.29-.56.39-1.12.74-1.69,1.04-.16-.2-.38-.43-.65-.69-.27-.26-.53-.48-.78-.66.49-.25,1-.55,1.52-.89.52-.34,1.01-.72,1.46-1.12.45-.41.82-.81,1.11-1.21Zm1.72,2.68l1.98.84c-.52.65-1.11,1.26-1.79,1.84-.68.57-1.4,1.1-2.17,1.57s-1.55.89-2.34,1.25c-.16-.24-.38-.51-.64-.81-.26-.3-.52-.55-.77-.75.72-.27,1.44-.62,2.16-1.03.72-.41,1.4-.86,2.03-1.36.63-.49,1.14-1.01,1.55-1.56Z"/>
            <path class="cls-2" d="m118.66,56.26l1.89.32c-.52.91-1.19,1.76-2.01,2.54-.82.78-1.85,1.47-3.08,2.07-.13-.21-.3-.45-.54-.72-.23-.27-.44-.47-.63-.61,1.11-.47,2.02-1.03,2.75-1.67.73-.64,1.27-1.28,1.62-1.93Zm2.81,1.09h.36l.34-.09,1.21.58c-.45,1.25-1.09,2.35-1.91,3.3-.82.95-1.75,1.75-2.8,2.42-1.05.66-2.15,1.2-3.31,1.61-.11-.24-.27-.51-.48-.8-.21-.3-.41-.54-.59-.73.79-.24,1.56-.54,2.3-.92.74-.38,1.43-.82,2.08-1.34.64-.52,1.2-1.09,1.69-1.71.48-.62.86-1.3,1.12-2.02v-.28Zm-2.47,8.69l2.02.71c-.39.46-.85.91-1.39,1.33-.53.42-1.1.82-1.71,1.18-.6.36-1.19.67-1.77.94-.11-.15-.26-.33-.44-.52-.18-.2-.37-.4-.57-.6-.2-.2-.37-.36-.52-.49.84-.29,1.67-.65,2.47-1.1.8-.44,1.44-.93,1.91-1.45Zm-4-11.84h16.32v3.3h-2.13v-1.48h-12.15v1.48h-2.04v-3.3Zm.74,6.61l1.19-.88c.23.15.46.33.7.52.24.2.46.4.67.59.21.19.37.37.5.53l-1.26.97c-.16-.25-.42-.54-.77-.86-.35-.32-.69-.62-1.02-.88Zm.94,3.33h12.96v1.83h-12.96v-1.83Zm.89-4.55l1.04-.9c.35.2.72.44,1.1.72.38.28.68.53.9.76l-1.11.99c-.13-.15-.3-.32-.51-.51s-.45-.37-.7-.56-.49-.36-.72-.51Zm1.51-2.25h2.89v1.35h-4.06l1.17-1.35Zm3.02,7.74h2.21v3.45c0,.49-.06.86-.19,1.13-.13.27-.37.48-.74.63-.37.14-.79.21-1.28.23-.49.02-1.06.03-1.72.03-.05-.29-.14-.6-.25-.95-.12-.34-.25-.65-.39-.91.28.01.55.02.83.03.28,0,.52,0,.74,0h.44c.13-.01.21-.04.26-.08s.08-.11.08-.21v-3.37Zm-2.02-3.75h6.36v1.76h-6.36v-1.76Zm1.94-8.37h2.28v2.57h-2.28v-2.57Zm2.32,3.28c.6,1.62,1.55,2.99,2.83,4.1,1.28,1.11,2.92,1.89,4.9,2.32-.23.21-.46.49-.71.84s-.44.66-.58.94c-2.11-.59-3.83-1.53-5.14-2.84-1.31-1.3-2.32-2.95-3.03-4.94l1.72-.43Zm.74,11.09l1.53-1.35c.5.24,1.05.52,1.64.83.59.32,1.16.64,1.7.96.54.32.99.62,1.36.9l-1.62,1.52c-.33-.28-.75-.58-1.27-.93-.52-.34-1.08-.69-1.66-1.04-.58-.35-1.14-.65-1.67-.9Zm.36-10.04h4.07v1.69h-4.07v-1.69Zm3.15,0h.45l.38-.09,1.26.79c-.38.77-.85,1.54-1.42,2.3s-1.16,1.4-1.76,1.91c-.14-.2-.33-.42-.57-.67-.24-.25-.45-.45-.64-.6.31-.27.62-.6.92-.98s.58-.77.82-1.17.43-.77.56-1.12v-.36Z"/>
            <path class="cls-2" d="m135.37,60.1h15.41v2.15h-15.41v-2.15Zm1.83-6.11h11.58v2.08h-11.58v-2.08Zm5.66,7.81h2.36v6.29c0,.59-.08,1.04-.25,1.36-.16.32-.47.56-.92.72-.44.16-.97.26-1.58.29s-1.33.05-2.15.05c-.06-.31-.18-.68-.34-1.1-.16-.42-.33-.77-.49-1.06.38.01.77.02,1.17.03.4,0,.76,0,1.08,0h.66c.19-.01.31-.04.38-.09s.09-.14.09-.28v-6.22Zm-3.04-3.33l1.15-1.7c.5.17,1.07.37,1.71.6.63.23,1.27.46,1.91.69.64.24,1.25.47,1.83.69.58.22,1.07.43,1.47.62l-1.21,1.93c-.38-.19-.84-.4-1.4-.65-.55-.24-1.15-.49-1.78-.75-.64-.26-1.27-.51-1.91-.76s-1.23-.47-1.78-.67Zm8.11-4.48h.6l.51-.11,1.62,1.27c-.54.52-1.14,1.06-1.78,1.6-.65.54-1.32,1.06-2.01,1.54-.69.49-1.38.92-2.06,1.29-.1-.15-.24-.32-.41-.51-.17-.19-.34-.37-.51-.55-.17-.18-.32-.33-.46-.44.55-.3,1.12-.66,1.71-1.1.58-.43,1.12-.87,1.61-1.32.49-.45.88-.85,1.17-1.2v-.49Zm2.09,6.11h.42l.42-.15,1.85.81c-.42.87-.89,1.75-1.42,2.63-.53.88-1.07,1.64-1.61,2.28l-1.94-1.12c.28-.35.56-.75.84-1.21.28-.46.55-.93.81-1.42s.47-.97.65-1.43v-.37Z"/>
            <path class="cls-2" d="m156.53,63.96l1.87.34c-.1.9-.25,1.79-.45,2.66s-.43,1.61-.7,2.21c-.13-.09-.3-.18-.51-.29-.21-.11-.43-.21-.65-.31-.22-.1-.41-.17-.58-.22.28-.56.5-1.23.66-2.01.16-.78.28-1.57.36-2.37Zm-.81-6.56l1.08-1.54c.33.27.67.58,1.02.93.35.34.68.68.97,1.02s.52.65.67.94l-1.15,1.74c-.15-.29-.37-.62-.65-.98-.28-.37-.59-.74-.93-1.11s-.67-.7-1-1Zm0,3.8c.87-.02,1.91-.06,3.14-.11,1.23-.05,2.47-.11,3.74-.17l-.02,1.78c-1.18.09-2.36.17-3.53.25s-2.22.15-3.15.2l-.19-1.95Zm2.91-8.24l2,.69c-.25.49-.52.98-.79,1.49-.28.5-.55.99-.81,1.46-.26.47-.52.88-.77,1.23l-1.53-.62c.23-.39.46-.83.7-1.32s.47-1,.68-1.51.39-.99.53-1.42Zm2.26,2.23l1.92.79c-.47.71-.97,1.46-1.51,2.24s-1.09,1.53-1.64,2.24-1.07,1.34-1.55,1.87l-1.38-.69c.36-.42.74-.91,1.11-1.44.38-.54.75-1.09,1.12-1.67s.72-1.15,1.06-1.73c.33-.58.62-1.11.86-1.6Zm-2.17,7h2v8.35h-2v-8.35Zm1.72-2.49l1.6-.69c.25.41.5.86.74,1.33s.45.94.62,1.4.31.87.4,1.23l-1.74.79c-.08-.35-.2-.76-.36-1.23-.16-.47-.36-.95-.58-1.44s-.45-.95-.69-1.38Zm.32,4.68l1.66-.54c.26.56.51,1.17.74,1.83.23.66.39,1.24.49,1.72l-1.75.64c-.09-.5-.24-1.09-.45-1.77-.21-.68-.44-1.31-.68-1.88Zm4.53-11.46l2.34.52c-.26.92-.58,1.83-.95,2.73-.37.89-.78,1.73-1.22,2.5-.44.77-.9,1.45-1.38,2.02-.15-.14-.35-.29-.58-.47s-.49-.34-.75-.51-.49-.29-.68-.39c.49-.5.94-1.09,1.34-1.77s.76-1.42,1.08-2.21c.32-.79.59-1.6.8-2.43Zm-.75,8.5l1.83-.9c.33.42.65.89.98,1.4s.62,1,.89,1.5.46.94.58,1.34l-1.96,1.01c-.11-.39-.29-.83-.54-1.34s-.52-1.02-.83-1.54-.63-1.01-.95-1.46Zm.64-5.3h6.77v2.13h-6.77v-2.13Zm5.79,0h2.19v.66c0,.16,0,.29-.02.39-.06,2.06-.13,3.81-.2,5.25-.07,1.44-.15,2.63-.25,3.57-.1.94-.22,1.67-.35,2.21-.13.54-.3.93-.5,1.18-.26.36-.54.61-.82.75-.28.14-.63.24-1.03.3-.34.05-.78.08-1.31.08s-1.08,0-1.65-.02c-.01-.33-.09-.7-.23-1.13-.14-.43-.31-.81-.53-1.13.6.05,1.16.08,1.66.09.5.01.87.02,1.11.02.2,0,.36-.03.48-.08s.24-.13.35-.24c.15-.16.28-.49.4-.99.11-.5.21-1.2.29-2.11.08-.91.16-2.04.23-3.42.07-1.37.13-3.02.18-4.93v-.45Z"/>
          </g>
        </g>
      </g>
    </g>
  </g>
</svg>