<?xml version="1.0" encoding="UTF-8"?>
<svg id="_レイヤー_2" data-name="レイヤー 2" xmlns="http://www.w3.org/2000/svg" viewBox="0 0 215.93 94">
  <defs>
    <style>
      .cls-1 {
        fill: #06a955;
      }

      .cls-1, .cls-2, .cls-3 {
        stroke-width: 0px;
      }

      .cls-2 {
        fill: #06c755;
      }

      .cls-3 {
        fill: #fff;
      }
    </style>
  </defs>
  <g id="_メニューOPEN" data-name="メニューOPEN">
    <g id="LINE予約ボタン">
      <rect class="cls-2" width="215.93" height="94"/>
      <g>
        <path class="cls-3" d="m87.27,45.33c0-16.87-16.91-30.59-37.69-30.59S11.88,28.46,11.88,45.33c0,15.12,13.41,27.79,31.52,30.18,1.23.27,2.9.81,3.32,1.86.38.95.25,2.45.12,3.41,0,0-.44,2.66-.54,3.23-.16.95-.76,3.73,3.27,2.03,4.02-1.7,21.71-12.78,29.62-21.88h0c5.46-5.99,8.08-12.07,8.08-18.82Z"/>
        <g>
          <path class="cls-1" d="m74.73,55.06h-10.59c-.4,0-.72-.32-.72-.72h0v-16.43h0v-.02c0-.4.32-.72.72-.72h10.59c.4,0,.72.32.72.72v2.67c0,.4-.32.72-.72.72h-7.2v2.78h7.2c.4,0,.72.32.72.72v2.67c0,.4-.32.72-.72.72h-7.2v2.78h7.2c.4,0,.72.32.72.72v2.67c0,.4-.32.72-.72.72Z"/>
          <path class="cls-1" d="m35.56,55.06c.4,0,.72-.32.72-.72v-2.67c0-.4-.32-.72-.72-.72h-7.2v-13.06c0-.4-.32-.72-.72-.72h-2.67c-.4,0-.72.32-.72.72v16.44h0c0,.41.32.73.72.73h10.59Z"/>
          <rect class="cls-1" x="38.54" y="37.17" width="4.11" height="17.89" rx=".72" ry=".72"/>
          <path class="cls-1" d="m60.13,37.17h-2.67c-.4,0-.72.32-.72.72v9.77l-7.53-10.16s-.04-.05-.06-.07c0,0,0,0,0,0-.01-.02-.03-.03-.04-.04,0,0,0,0-.01-.01-.01-.01-.03-.02-.04-.03,0,0-.01,0-.02-.01-.01,0-.02-.02-.04-.03,0,0-.01,0-.02-.01-.01,0-.03-.02-.04-.02,0,0-.02,0-.02-.01-.01,0-.03-.01-.04-.02,0,0-.02,0-.02,0-.01,0-.03,0-.04-.01,0,0-.02,0-.03,0-.01,0-.03,0-.04,0-.01,0-.02,0-.03,0-.01,0-.03,0-.04,0-.01,0-.03,0-.04,0,0,0-.02,0-.02,0h-2.66c-.4,0-.72.32-.72.72v16.45c0,.4.32.72.72.72h2.67c.4,0,.72-.32.72-.72v-9.77l7.54,10.18c.05.07.12.13.19.18,0,0,0,0,0,0,.01,0,.03.02.05.03,0,0,.01,0,.02.01.01,0,.02.01.03.02.01,0,.02.01.04.02,0,0,.02,0,.02,0,.02,0,.03.01.05.02,0,0,0,0,.01,0,.06.02.12.03.19.03h2.66c.4,0,.72-.32.72-.72v-16.45c0-.4-.32-.72-.72-.72Z"/>
        </g>
      </g>
      <g>
        <path class="cls-3" d="m103.92,31.98c.37.03.73.04,1.09.03.35,0,.72-.02,1.11-.03.33-.01.73-.04,1.22-.07.48-.03,1-.07,1.54-.11.54-.04,1.08-.08,1.63-.13.55-.05,1.05-.08,1.51-.11.46-.03.85-.04,1.15-.04.72,0,1.36.12,1.91.35.55.23.99.63,1.31,1.19.32.56.48,1.32.48,2.28,0,.79-.04,1.64-.11,2.56-.08.92-.19,1.8-.36,2.64-.16.84-.4,1.55-.7,2.14-.33.69-.78,1.17-1.34,1.44-.57.27-1.24.4-2.02.4-.4,0-.82-.03-1.26-.09-.44-.06-.84-.12-1.2-.19l-.45-2.64c.27.07.57.13.89.2.32.07.63.12.92.16.29.04.53.06.71.06.34,0,.64-.06.9-.19.26-.13.47-.35.63-.67.19-.39.34-.89.46-1.5.12-.61.21-1.28.27-1.99.06-.71.09-1.4.09-2.05,0-.53-.08-.93-.23-1.18-.15-.25-.37-.42-.67-.51-.29-.09-.66-.13-1.1-.13-.3,0-.72.02-1.26.07-.54.05-1.11.1-1.71.16-.6.06-1.16.12-1.69.19-.53.07-.93.11-1.22.14-.29.05-.66.11-1.12.17-.46.06-.84.12-1.16.17l-.25-2.72Zm8.31-4.1c-.07.25-.13.53-.19.83-.06.3-.12.58-.17.83-.05.29-.12.62-.21.99-.08.37-.16.73-.24,1.1-.08.37-.15.72-.24,1.07-.14.57-.31,1.24-.51,2-.2.76-.44,1.58-.72,2.45-.27.87-.58,1.75-.92,2.63-.34.88-.7,1.74-1.09,2.57-.38.83-.79,1.58-1.23,2.25l-2.66-1.04c.48-.63.92-1.33,1.34-2.11.42-.78.79-1.58,1.14-2.41.34-.83.65-1.64.91-2.44.27-.8.49-1.55.69-2.24.19-.69.34-1.29.45-1.78.19-.91.34-1.78.45-2.62.11-.84.16-1.63.14-2.38l3.05.3Zm7.04,1.88c.33.43.67.96,1.01,1.61.35.65.69,1.33,1.02,2.05.33.72.64,1.41.92,2.08.28.67.49,1.23.64,1.7l-2.6,1.18c-.14-.56-.32-1.18-.56-1.87-.24-.69-.51-1.39-.82-2.1-.31-.71-.63-1.39-.98-2.03-.35-.64-.71-1.17-1.08-1.6l2.44-1.02Z"/>
        <path class="cls-3" d="m136.36,28.82c-.1.13-.2.28-.32.45-.12.17-.23.33-.34.49-.25.36-.52.78-.81,1.25-.29.47-.6.97-.91,1.5-.31.53-.62,1.05-.91,1.57-.29.52-.57,1-.83,1.44.38-.21.77-.37,1.17-.46.4-.09.79-.14,1.19-.14.76,0,1.37.22,1.81.67.44.45.69,1.09.73,1.93.01.29.02.65.02,1.06s0,.83.01,1.24c0,.41.02.76.05,1.04.04.39.19.66.44.83.25.17.55.25.89.25.44,0,.84-.13,1.2-.38.36-.25.69-.6.97-1.05.29-.45.54-.95.75-1.52.21-.57.39-1.16.54-1.77l2.21,1.76c-.36,1.13-.81,2.13-1.35,2.99s-1.21,1.53-2,2c-.79.47-1.7.71-2.75.71-.75,0-1.38-.13-1.88-.39-.51-.26-.88-.6-1.13-1.02-.25-.42-.38-.88-.41-1.37-.03-.36-.04-.76-.05-1.2,0-.44-.01-.87-.02-1.29,0-.42-.02-.76-.05-1.03-.03-.35-.14-.62-.35-.82-.21-.2-.49-.3-.86-.3-.45,0-.88.14-1.29.42s-.78.65-1.12,1.1c-.33.45-.62.95-.87,1.5-.14.29-.28.64-.43,1.04-.15.4-.29.81-.43,1.24-.14.43-.27.83-.39,1.21-.12.38-.23.7-.31.97l-2.89-.96c.26-.67.58-1.43.95-2.29.38-.86.79-1.76,1.24-2.71.45-.95.91-1.89,1.37-2.82.46-.93.91-1.82,1.33-2.65.42-.83.8-1.56,1.14-2.18.33-.62.59-1.09.77-1.41.14-.27.29-.57.47-.9.18-.33.35-.71.53-1.14l2.91,1.14Z"/>
        <path class="cls-3" d="m155.69,27.72c-.08.27-.16.59-.25.98s-.14.69-.18.9c-.1.45-.21,1.01-.36,1.66-.14.65-.3,1.35-.47,2.08-.17.73-.34,1.43-.52,2.1-.18.71-.4,1.47-.66,2.29-.26.82-.54,1.65-.83,2.5-.29.85-.59,1.65-.89,2.42-.3.77-.59,1.45-.88,2.05l-2.85-.94c.3-.51.62-1.12.96-1.85.34-.73.67-1.51.99-2.35.32-.84.62-1.67.89-2.5.27-.83.5-1.59.7-2.3.14-.47.27-.95.39-1.44.12-.49.23-.97.33-1.44.1-.47.18-.9.26-1.31.08-.41.13-.76.17-1.07.04-.37.07-.75.08-1.12.01-.37,0-.67-.02-.9l3.13.24Zm-5.22,2.98c.83,0,1.7-.04,2.6-.12.9-.08,1.81-.19,2.72-.34.91-.15,1.82-.32,2.72-.52v2.5c-.85.19-1.75.35-2.7.48-.96.13-1.9.24-2.83.31-.93.07-1.78.11-2.56.11-.49,0-.93-.01-1.33-.03-.4-.02-.78-.04-1.15-.05l-.06-2.5c.53.05.99.09,1.37.12.38.03.79.04,1.21.04Zm7.54,8.1c-.08.28-.15.57-.2.87-.05.3-.08.56-.08.79,0,.21.05.41.14.6.09.19.25.35.45.49.21.14.49.25.85.33s.82.12,1.36.12c.7,0,1.4-.04,2.1-.11.7-.07,1.42-.18,2.16-.31l-.1,2.56c-.57.07-1.21.13-1.91.19-.7.06-1.45.09-2.27.09-1.72,0-3.04-.28-3.94-.83-.91-.55-1.36-1.34-1.36-2.35,0-.45.04-.91.12-1.38.08-.47.16-.9.25-1.3l2.44.24Zm-1.11-5.04c.57-.05,1.21-.1,1.9-.14s1.37-.06,2.03-.06c.59,0,1.18.01,1.79.04.61.03,1.21.07,1.81.14l-.06,2.4c-.5-.07-1.06-.12-1.67-.17-.61-.05-1.23-.07-1.85-.07-.7,0-1.37.02-2.02.05-.65.03-1.29.09-1.94.17v-2.36Z"/>
        <path class="cls-3" d="m179.34,28.82c-.1.13-.2.28-.32.45-.12.17-.23.33-.34.49-.25.36-.52.78-.81,1.25-.29.47-.6.97-.91,1.5-.31.53-.62,1.05-.91,1.57-.29.52-.57,1-.83,1.44.38-.21.77-.37,1.17-.46.4-.09.79-.14,1.19-.14.76,0,1.37.22,1.81.67.44.45.69,1.09.73,1.93.01.29.02.65.02,1.06s0,.83.01,1.24c0,.41.02.76.05,1.04.04.39.19.66.44.83.25.17.55.25.89.25.44,0,.84-.13,1.2-.38.36-.25.69-.6.97-1.05.29-.45.54-.95.75-1.52.21-.57.39-1.16.54-1.77l2.21,1.76c-.36,1.13-.81,2.13-1.35,2.99s-1.21,1.53-2,2c-.79.47-1.7.71-2.75.71-.75,0-1.38-.13-1.88-.39-.51-.26-.88-.6-1.13-1.02-.25-.42-.38-.88-.41-1.37-.03-.36-.04-.76-.05-1.2,0-.44-.01-.87-.02-1.29,0-.42-.02-.76-.05-1.03-.03-.35-.14-.62-.35-.82-.21-.2-.49-.3-.86-.3-.45,0-.88.14-1.29.42s-.78.65-1.12,1.1c-.33.45-.62.95-.87,1.5-.14.29-.28.64-.43,1.04-.15.4-.29.81-.43,1.24-.14.43-.27.83-.39,1.21-.12.38-.23.7-.31.97l-2.89-.96c.26-.67.58-1.43.95-2.29.38-.86.79-1.76,1.24-2.71.45-.95.91-1.89,1.37-2.82.46-.93.91-1.82,1.33-2.65.42-.83.8-1.56,1.14-2.18.33-.62.59-1.09.77-1.41.14-.27.29-.57.47-.9.18-.33.35-.71.53-1.14l2.91,1.14Z"/>
        <path class="cls-3" d="m101.66,56h7.74v1.9h-7.74v-1.9Zm.92,8.32h2.07v6.88h-2.07v-6.88Zm.04-5.5h6.18v1.82h-6.18v-1.82Zm0,2.74h6.18v1.8h-6.18v-1.8Zm.08-8.24h6.06v1.8h-6.06v-1.8Zm.98,11h5.16v6.1h-5.16v-1.9h3.05v-2.3h-3.05v-1.9Zm11.12-9.28c-.34.6-.78,1.23-1.31,1.88-.53.65-1.12,1.28-1.77,1.87-.65.59-1.33,1.11-2.04,1.55-.14-.31-.32-.66-.55-1.05-.23-.39-.46-.72-.68-.99.72-.4,1.42-.91,2.08-1.53.66-.62,1.26-1.28,1.79-1.99.53-.71.96-1.37,1.27-2h2.27c.44.71.95,1.4,1.53,2.08s1.2,1.29,1.85,1.83c.66.54,1.32.98,1.99,1.31-.23.28-.47.62-.71,1.03-.24.41-.44.78-.6,1.13-.66-.39-1.3-.87-1.95-1.44-.64-.57-1.24-1.18-1.78-1.82-.55-.64-1.01-1.26-1.39-1.86Zm3.42,9.04l2.21.94c-1.05,1.56-2.41,2.87-4.06,3.94-1.66,1.07-3.48,1.92-5.46,2.56-.16-.32-.39-.67-.68-1.06-.29-.39-.57-.72-.86-1,1.23-.31,2.41-.72,3.54-1.23,1.13-.51,2.15-1.11,3.06-1.8.91-.69,1.65-1.47,2.24-2.35Zm-3.46-6.04l2.13.82c-.42.55-.91,1.07-1.45,1.57s-1.12.96-1.73,1.38c-.61.42-1.22.79-1.83,1.11-.18-.21-.41-.46-.71-.74-.29-.28-.58-.51-.85-.7.53-.27,1.08-.58,1.65-.95.57-.37,1.1-.77,1.59-1.2.49-.43.89-.86,1.21-1.29Zm1.86,2.86l2.15.9c-.56.69-1.21,1.35-1.95,1.96-.74.61-1.52,1.17-2.36,1.68-.83.51-1.68.95-2.54,1.34-.18-.25-.41-.54-.7-.86-.29-.32-.57-.59-.84-.8.78-.29,1.56-.66,2.34-1.1s1.52-.92,2.2-1.45c.68-.53,1.24-1.08,1.68-1.67Z"/>
        <path class="cls-3" d="m128.91,56.22l2.05.34c-.56.97-1.29,1.88-2.18,2.71-.89.83-2.01,1.57-3.35,2.21-.14-.23-.33-.48-.58-.77-.25-.29-.48-.5-.69-.65,1.2-.51,2.2-1.1,2.99-1.78.79-.68,1.38-1.37,1.76-2.06Zm3.05,1.16h.39l.37-.1,1.31.62c-.49,1.33-1.18,2.51-2.07,3.52-.89,1.01-1.9,1.87-3.04,2.58-1.14.71-2.34,1.28-3.59,1.72-.12-.25-.3-.54-.52-.86-.23-.32-.44-.58-.65-.78.86-.25,1.69-.58,2.5-.98.81-.4,1.56-.88,2.25-1.43.7-.55,1.31-1.16,1.83-1.83.53-.67.93-1.39,1.22-2.16v-.3Zm-2.68,9.28l2.19.76c-.42.49-.92.97-1.5,1.42-.58.45-1.2.87-1.85,1.26-.66.39-1.3.72-1.92,1-.12-.16-.28-.35-.48-.56-.2-.21-.4-.43-.61-.64-.21-.21-.4-.39-.56-.52.91-.31,1.81-.7,2.68-1.17.87-.47,1.56-.99,2.07-1.55Zm-4.34-12.64h17.71v3.52h-2.31v-1.58h-13.19v1.58h-2.21v-3.52Zm.8,7.06l1.29-.94c.25.16.5.35.76.56.26.21.5.42.73.63.23.21.41.4.54.57l-1.37,1.04c-.18-.27-.46-.57-.84-.92-.38-.35-.75-.66-1.11-.94Zm1.02,3.56h14.07v1.96h-14.07v-1.96Zm.96-4.86l1.13-.96c.38.21.78.47,1.2.77.42.3.74.57.97.81l-1.21,1.06c-.14-.16-.32-.34-.55-.54-.23-.2-.49-.4-.76-.6-.27-.2-.53-.38-.78-.54Zm1.64-2.4h3.13v1.44h-4.4l1.27-1.44Zm3.28,8.26h2.4v3.68c0,.52-.07.92-.21,1.21-.14.29-.4.51-.8.67-.4.15-.86.23-1.39.25-.53.02-1.15.03-1.86.03-.05-.31-.15-.64-.28-1.01-.13-.37-.27-.69-.42-.97.3.01.6.02.9.03.3,0,.57.01.81.01h.48c.14-.01.23-.04.29-.08.05-.04.08-.11.08-.22v-3.6Zm-2.19-4h6.9v1.88h-6.9v-1.88Zm2.11-8.94h2.48v2.74h-2.48v-2.74Zm2.52,3.5c.66,1.73,1.68,3.19,3.07,4.38,1.39,1.19,3.17,2.01,5.32,2.48-.25.23-.5.53-.77.9-.27.37-.47.71-.62,1-2.29-.63-4.15-1.64-5.58-3.03-1.43-1.39-2.52-3.15-3.29-5.27l1.86-.46Zm.8,11.84l1.66-1.44c.55.25,1.14.55,1.78.89s1.26.68,1.84,1.03c.59.35,1.08.67,1.47.96l-1.76,1.62c-.36-.29-.82-.62-1.38-.99-.57-.37-1.17-.74-1.8-1.11-.63-.37-1.24-.69-1.81-.96Zm.39-10.72h4.42v1.8h-4.42v-1.8Zm3.42,0h.49l.41-.1,1.37.84c-.41.83-.92,1.65-1.55,2.46-.62.81-1.26,1.49-1.92,2.04-.15-.21-.36-.45-.61-.72-.26-.27-.49-.48-.7-.64.34-.29.68-.64,1-1.05.33-.41.62-.82.89-1.25.27-.43.47-.83.6-1.2v-.38Z"/>
        <path class="cls-3" d="m147.06,60.32h16.73v2.3h-16.73v-2.3Zm1.99-6.52h12.57v2.22h-12.57v-2.22Zm6.14,8.34h2.56v6.72c0,.63-.09,1.11-.27,1.45-.18.34-.51.6-1,.77-.48.17-1.05.28-1.72.31-.67.03-1.45.05-2.33.05-.07-.33-.19-.72-.37-1.17-.18-.45-.35-.82-.53-1.13.41.01.83.02,1.27.03.44,0,.83.01,1.17.01h.72c.21-.01.34-.05.41-.1.07-.05.1-.15.1-.3v-6.64Zm-3.3-3.56l1.25-1.82c.55.19,1.16.4,1.85.64s1.38.49,2.08.74c.7.25,1.36.5,1.99.74s1.16.46,1.6.66l-1.31,2.06c-.41-.2-.92-.43-1.52-.69-.6-.26-1.25-.53-1.94-.8-.69-.27-1.38-.54-2.07-.81-.69-.27-1.33-.51-1.94-.72Zm8.81-4.78h.66l.55-.12,1.76,1.36c-.59.56-1.23,1.13-1.93,1.71-.7.58-1.43,1.13-2.18,1.65s-1.5.98-2.23,1.38c-.11-.16-.26-.34-.44-.54-.18-.2-.37-.4-.55-.59-.18-.19-.35-.35-.5-.47.6-.32,1.22-.71,1.85-1.17.64-.46,1.22-.93,1.75-1.41.53-.48.96-.91,1.27-1.28v-.52Zm2.27,6.52h.45l.45-.16,2.01.86c-.45.93-.97,1.87-1.55,2.81-.58.94-1.16,1.75-1.75,2.43l-2.11-1.2c.3-.37.6-.8.91-1.29.31-.49.6-.99.88-1.52.28-.53.51-1.04.71-1.53v-.4Z"/>
        <path class="cls-3" d="m170.04,64.44l2.03.36c-.11.96-.27,1.91-.49,2.84-.22.93-.47,1.72-.76,2.36-.14-.09-.32-.2-.55-.31-.23-.11-.47-.22-.71-.33-.24-.11-.45-.19-.62-.24.3-.6.54-1.32.72-2.15.18-.83.31-1.68.39-2.53Zm-.88-7l1.17-1.64c.35.29.72.62,1.11.99.38.37.73.73,1.05,1.09.32.36.56.69.73,1l-1.25,1.86c-.16-.31-.4-.66-.71-1.05-.31-.39-.65-.79-1.01-1.18-.37-.39-.73-.75-1.09-1.07Zm0,4.06c.94-.03,2.08-.07,3.41-.12,1.33-.05,2.69-.11,4.06-.18l-.02,1.9c-1.28.09-2.56.18-3.83.27-1.27.09-2.41.16-3.42.21l-.21-2.08Zm3.15-8.8l2.17.74c-.27.52-.56,1.05-.86,1.59-.3.54-.59,1.06-.88,1.56s-.57.94-.84,1.31l-1.66-.66c.25-.41.5-.88.76-1.41.26-.53.5-1.06.74-1.61.23-.55.42-1.05.57-1.52Zm2.46,2.38l2.09.84c-.5.76-1.05,1.56-1.64,2.39-.59.83-1.18,1.63-1.78,2.39s-1.16,1.43-1.68,2l-1.49-.74c.4-.45.8-.97,1.21-1.54.41-.57.82-1.17,1.22-1.78.4-.61.78-1.23,1.15-1.85.36-.62.67-1.19.93-1.71Zm-2.36,7.48h2.17v8.92h-2.17v-8.92Zm1.86-2.66l1.74-.74c.27.44.54.91.8,1.42.26.51.48,1,.68,1.49.19.49.33.92.43,1.31l-1.88.84c-.08-.37-.21-.81-.39-1.31-.18-.5-.39-1.01-.62-1.54-.24-.53-.49-1.02-.75-1.47Zm.35,5l1.8-.58c.29.6.55,1.25.8,1.96.25.71.42,1.32.53,1.84l-1.91.68c-.1-.53-.26-1.16-.49-1.89-.23-.73-.48-1.4-.74-2.01Zm4.92-12.24l2.54.56c-.29.99-.63,1.96-1.03,2.91-.4.95-.84,1.84-1.32,2.67-.48.83-.98,1.55-1.5,2.16-.16-.15-.38-.31-.63-.5-.26-.19-.53-.37-.82-.54-.29-.17-.53-.31-.74-.42.53-.53,1.02-1.16,1.45-1.89.44-.73.83-1.51,1.18-2.36.35-.85.64-1.71.87-2.59Zm-.82,9.08l1.99-.96c.36.45.71.95,1.07,1.49.35.54.68,1.07.96,1.6.29.53.5,1,.63,1.43l-2.13,1.08c-.12-.41-.32-.89-.58-1.43-.27-.54-.57-1.09-.9-1.65-.33-.56-.68-1.08-1.03-1.56Zm.7-5.66h7.35v2.28h-7.35v-2.28Zm6.29,0h2.38v.7c0,.17,0,.31-.02.42-.07,2.2-.14,4.07-.21,5.61-.08,1.54-.17,2.81-.28,3.81s-.24,1.79-.38,2.36c-.14.57-.32.99-.54,1.26-.29.39-.58.65-.89.8-.31.15-.68.25-1.12.32-.37.05-.84.08-1.42.08s-1.18,0-1.79-.02c-.01-.35-.1-.75-.25-1.21-.15-.46-.34-.86-.57-1.21.66.05,1.26.09,1.8.1.55.01.95.02,1.21.02.22,0,.39-.03.52-.08.13-.05.26-.14.38-.26.16-.17.31-.53.43-1.06.12-.53.23-1.28.32-2.25.09-.97.17-2.18.25-3.65.07-1.47.14-3.22.19-5.26v-.48Z"/>
      </g>
    </g>
  </g>
</svg>