<?xml version="1.0" encoding="UTF-8"?>
<svg id="_レイヤー_2" data-name="レイヤー 2" xmlns="http://www.w3.org/2000/svg" viewBox="0 0 75.39 71.83">
  <defs>
    <style>
      .cls-1 {
        fill: #06a955;
      }

      .cls-1, .cls-2 {
        stroke-width: 0px;
      }

      .cls-2 {
        fill: #fff;
      }
    </style>
  </defs>
  <g id="_追従メニュー_バナー" data-name="追従メニュー・バナー">
    <g>
      <path class="cls-2" d="m75.39,30.59C75.39,13.72,58.48,0,37.69,0S0,13.72,0,30.59c0,15.12,13.41,27.79,31.52,30.18,1.23.27,2.9.81,3.32,1.86.38.95.25,2.45.12,3.41,0,0-.44,2.66-.54,3.23-.16.95-.76,3.73,3.27,2.03,4.02-1.7,21.71-12.78,29.62-21.88h0c5.46-5.99,8.08-12.07,8.08-18.82Z"/>
      <g>
        <path class="cls-1" d="m62.85,40.33h-10.59c-.4,0-.72-.32-.72-.72h0v-16.43h0v-.02c0-.4.32-.72.72-.72h10.59c.4,0,.72.32.72.72v2.67c0,.4-.32.72-.72.72h-7.2v2.78h7.2c.4,0,.72.32.72.72v2.67c0,.4-.32.72-.72.72h-7.2v2.78h7.2c.4,0,.72.32.72.72v2.67c0,.4-.32.72-.72.72Z"/>
        <path class="cls-1" d="m23.68,40.33c.4,0,.72-.32.72-.72v-2.67c0-.4-.32-.72-.72-.72h-7.2v-13.06c0-.4-.32-.72-.72-.72h-2.67c-.4,0-.72.32-.72.72v16.44h0c0,.41.32.73.72.73h10.59Z"/>
        <rect class="cls-1" x="26.66" y="22.44" width="4.11" height="17.89" rx=".72" ry=".72"/>
        <path class="cls-1" d="m48.25,22.44h-2.67c-.4,0-.72.32-.72.72v9.77l-7.53-10.16s-.04-.05-.06-.07c0,0,0,0,0,0-.01-.02-.03-.03-.04-.04,0,0,0,0-.01-.01-.01-.01-.03-.02-.04-.03,0,0-.01,0-.02-.01-.01,0-.02-.02-.04-.03,0,0-.01,0-.02-.01-.01,0-.03-.02-.04-.02,0,0-.02,0-.02-.01-.01,0-.03-.01-.04-.02,0,0-.02,0-.02,0-.01,0-.03,0-.04-.01,0,0-.02,0-.03,0-.01,0-.03,0-.04,0-.01,0-.02,0-.03,0-.01,0-.03,0-.04,0-.01,0-.03,0-.04,0,0,0-.02,0-.02,0h-2.66c-.4,0-.72.32-.72.72v16.45c0,.4.32.72.72.72h2.67c.4,0,.72-.32.72-.72v-9.77l7.54,10.18c.05.07.12.13.19.18,0,0,0,0,0,0,.01,0,.03.02.05.03,0,0,.01,0,.02.01.01,0,.02.01.03.02.01,0,.02.01.04.02,0,0,.02,0,.02,0,.02,0,.03.01.05.02,0,0,0,0,.01,0,.06.02.12.03.19.03h2.66c.4,0,.72-.32.72-.72v-16.45c0-.4-.32-.72-.72-.72Z"/>
      </g>
    </g>
  </g>
</svg>