<?xml version="1.0" encoding="UTF-8"?>
<svg id="_レイヤー_2" data-name="レイヤー 2" xmlns="http://www.w3.org/2000/svg" viewBox="0 0 280.19 126.67">
  <defs>
    <style>
      .cls-1, .cls-2 {
        stroke-width: 0px;
      }

      .cls-2 {
        fill: #80a83f;
      }
    </style>
  </defs>
  <g id="FV">
    <g id="_ロゴ画像" data-name="ロゴ画像">
      <g>
        <path class="cls-2" d="m51.24,0c-6.24.11-9.28,4.37-9.96,8.25C40.6,4.38,37.55.12,31.31,0c-5.75-.11-10.5,4.16-10.5,11.95,0,10,11.72,14.62,19.73,22.09.28.26.21.25.21.25.13.16.32.25.52.25h0c.2,0,.39-.09.52-.25,0,0-.07,0,.21-.25,8.01-7.47,19.73-12.09,19.73-22.09C61.73,4.16,56.98-.11,51.23,0h0Z"/>
        <path class="cls-2" d="m83.09,50.15c-.11-6.24-4.37-9.28-8.25-9.96,3.87-.68,8.13-3.73,8.25-9.96.11-5.75-4.16-10.5-11.95-10.5-10,0-14.62,11.72-22.09,19.73-.26.28-.25.21-.25.21-.16.13-.25.32-.25.52h0c0,.2.09.39.25.52,0,0,0-.07.25.21,7.47,8.01,12.09,19.73,22.09,19.73,7.79,0,12.06-4.75,11.95-10.5h0Z"/>
        <path class="cls-2" d="m0,30.23c.11,6.24,4.37,9.28,8.25,9.96C4.38,40.87.12,43.92,0,50.15c-.11,5.75,4.16,10.5,11.95,10.5,10,0,14.62-11.72,22.09-19.73.26-.28.25-.21.25-.21.16-.13.25-.32.25-.52h0c0-.2-.09-.39-.25-.52,0,0,0,.07-.25-.21-7.47-8.01-12.09-19.73-22.09-19.73C4.16,19.73-.11,24.48,0,30.24h0Z"/>
        <path class="cls-2" d="m31.14,80.41c6.24-.11,9.28-4.37,9.96-8.25.68,3.87,3.73,8.13,9.96,8.25,5.75.11,10.5-4.16,10.5-11.95,0-10-11.72-14.62-19.73-22.09-.28-.26-.21-.25-.21-.25-.13-.16-.32-.25-.52-.25h0c-.2,0-.39.09-.52.25,0,0,.07,0-.21.25-8.01,7.47-19.73,12.09-19.73,22.09,0,7.79,4.75,12.06,10.5,11.95h0Z"/>
        <g>
          <path class="cls-1" d="m120.53,14.31c1.35,0,2.88.24,4.51.71,1.92.53,2.82,1.36,2.82,2.55,0,.31-.15.87-.45,1.66-.62,1.84-1.13,5.51-1.13,8.53v1.13c.56.53.85.65,1.52.65,2.14,0,6.49-1.78,8.58-3.5.62-.47.9-.65,1.24-.65.51,0,1.64.36,2.43.77.9.53,1.19.89,1.19,1.42,0,.89-.73,1.36-3.33,2.37-3.05,1.19-5.75,1.84-7.84,1.84-1.64,0-2.54-.36-3.78-1.48v2.61c0,4.68.28,11.61.62,15.46,4.4.77,8.58,2.31,11.91,4.32,2.43,1.42,3.5,3.02,3.5,5.1,0,1.42-.4,2.25-1.13,2.25-.4,0-.73-.24-1.35-.77-4.8-4.27-7.45-5.86-12.7-7.52.08,1.86.11,3.14.11,3.85,0,2.9-1.3,4.8-4.01,5.86-1.35.53-3.72.89-5.75.89-5.93,0-9.65-2.49-9.65-6.46,0-2.84,1.92-5.1,5.47-6.52,2.2-.89,5.25-1.42,8.18-1.42.45,0,1.19,0,2.14.06-.23-15.88-.49-25.14-.79-27.78-.4-3.44-1.24-4.38-4.91-5.04.9-.71,1.35-.89,2.59-.89h0Zm-1.24,36.43c-5.81,0-9.99,2.07-9.99,5.04,0,2.37,2.31,3.73,6.32,3.73,3.27,0,5.98-.95,7.05-2.43.73-.95.9-2.19.9-6.22-1.8-.12-2.48-.12-4.29-.12Z"/>
          <path class="cls-1" d="m176.79,56.73c5.19-1.36,8.91-2.84,12.47-4.98,6.6-3.91,10.38-9.72,10.38-15.94s-4.17-9.95-10.33-9.95c-6.6,0-15.24,3.79-22.68,9.89-.9.77-1.47,1.01-2.14,1.01-2.65,0-6.77-4.15-6.77-6.81,0-.41.11-.77.45-1.48.56,1.24.9,1.66,1.58,2.19.85.65,1.52.95,2.31.95,1.47,0,3.61-.65,6.83-2.13,8.91-4.09,14.78-5.69,20.65-5.69,8.58,0,14.44,5.27,14.44,13.03,0,7.35-4.74,13.68-12.98,17.36-4.29,1.9-8.41,2.9-13.94,3.44l-.28-.89Z"/>
          <path class="cls-2" d="m235.98,47.07c0-1.84-.06-2.43-.23-4.09,5.08.65,5.98.89,5.98,1.54,0,.41-.4.65-2.09,1.19v2.55h15.35c1.47-1.72,1.92-2.19,3.5-3.79,2.25,1.84,2.93,2.43,5.08,4.32.17.24.28.41.28.53,0,.18-.23.3-.56.3h-22.96c2.09,1.84,3.27,2.67,5.53,3.97,5.53,3.02,9.54,4.09,19.81,5.21v.89c-2.31.59-3.1,1.36-4.29,4.21-6.04-1.9-9.42-3.5-13.6-6.22-3.89-2.55-6.15-4.62-8.12-7.52v4.92c0,2.09.08,5.06.23,8.89,0,.95-.51,1.13-2.65,1.13-1.19,0-1.41-.12-1.41-.83.11-4.11.17-7.05.17-8.83v-3.85c-3.78,3.61-6.72,5.81-10.89,8.06-3.95,2.13-7.05,3.38-12.47,4.86l-.28-.77c6.66-3.02,9.82-4.86,13.88-7.88,2.71-2.07,4.35-3.5,6.88-6.22h-14.05c-1.92,0-3.1.12-4.96.41l-.28-2.25c1.92.41,2.71.47,5.25.47h16.93v-1.19h0Zm.11-19.67c0-2.67-.06-3.38-.17-5.45,5.42.83,5.7.89,5.7,1.48,0,.41-.23.53-1.98,1.07v2.9h9.31c0-2.19,0-3.02-.11-5.45,4.57.65,4.8.71,5.36.95.34.18.56.36.56.59,0,.41-.45.65-2.2,1.07v2.84h3.72c1.3-1.54,1.69-2.01,3.05-3.55,2.14,1.72,2.77,2.25,4.85,4.15.17.18.23.3.23.47s-.17.3-.51.3h-11.34c0,3.04.02,5.61.06,7.7v.18c0,.59-.56.77-2.48.77-.9,0-1.18-.12-1.18-.47v-1.42h-9.31v1.36c0,.65-.4.77-2.54.77-1.01,0-1.19-.12-1.19-.65.08-1.82.11-4.56.11-8.23h-9.37v11.61h27.14c1.47-1.54,1.92-2.01,3.38-3.5,2.14,1.66,2.82,2.19,4.74,3.97.23.24.34.41.34.53,0,.24-.23.36-.56.36h-35.04v.71c0,.77-.34.89-2.43.89-1.24,0-1.35-.06-1.35-.65.11-4.35.17-8.24.17-11.67v-2.25h-5.3c-1.69,0-3.1.12-4.57.36l-.28-2.31c1.92.47,3.27.59,5.08.59h5.08c0-2.96-.06-3.5-.17-5.45,1.52.24,3.22.47,4.46.71,1.13.18,1.41.36,1.41.71,0,.47-.51.77-2.09,1.13v2.9h9.42,0Zm-7.17-13.75c0-1.13,0-1.72-.11-3.26,3.95.55,5.93,1.03,5.93,1.42,0,.47-.45.71-2.25,1.24v3.14h11.28v-2.25c0-1.48,0-2.25-.11-3.61,5.64.83,6.09.95,6.09,1.54,0,.47-.68.83-2.43,1.24v3.08h7.73c1.58-1.84,2.09-2.37,3.61-3.97,2.31,1.9,2.99,2.49,5.25,4.5.23.24.28.36.28.47,0,.24-.23.36-.62.36h-16.25v.83c0,.59,0,1.36.06,2.43,0,.65-.34.77-2.77.77-.79,0-.9-.12-.9-.65.06-1.6.06-2.13.06-3.38h-11.28v3.56c0,.65-.45.77-2.31.77-1.18,0-1.35-.06-1.35-.65.06-.83.11-2.07.11-3.67h-9.88c-2.43,0-3.27.06-5.25.36l-.34-2.19c2.31.41,3.22.47,5.59.47h9.88v-2.55h0Zm10.72,15.11v5.39h9.31v-5.39h-9.31Z"/>
        </g>
        <g>
          <path class="cls-1" d="m68.41,107.06c1.57-1.83,2.59-3.57,3.46-5.9.67-1.83,1.14-3.93,1.14-5.1,0-.6-.14-.87-.62-1.23-1.45.15-4.05.93-5.29,1.58-.41.2-.5.25-.74.25-.45,0-.93-.3-1.5-.95-.55-.6-.81-1.1-.81-1.5,0-.12.02-.25.1-.48.5.78,1.14,1.15,1.95,1.15.35,0,1.71-.22,4.07-.65,1.93-.33,2.91-.45,7.34-.93.43-.05,1.14-.2,1.86-.42.36-.12.38-.12.6-.12.34,0,.79.12,1.26.38.67.33,1.12.8,1.12,1.15,0,.3-.26.5-.67.5-.17,0-.26,0-.6-.08-.95-.2-2.52-.33-3.83-.33-1.38,0-2.67.08-3.91.25,1.09.63,1.57,1.15,1.57,1.73,0,.9-.69,3.15-1.53,4.9-1.31,2.8-2.52,4.38-4.72,6.08l-.26-.27h0Zm-.45-19.31c1,.98,1.79,1.35,2.86,1.35,1.53,0,3.72-.55,5-1.23.26-.15.48-.2.71-.2.62,0,1.62.8,1.62,1.3,0,.33-.29.45-1.24.68-1.57.35-4.17.65-5.45.65-1.77,0-2.71-.55-3.86-2.3l.36-.25h0Zm10.91-1.7c.88.5,1.53.98,2.12,1.55.86.8,1.19,1.38,1.19,1.98s-.34,1.05-.74,1.05c-.21,0-.56-.54-1.07-1.62-.41-.87-1.17-1.95-1.81-2.63l.31-.33Zm2.45-1.45c.86.4,1.55.83,2.26,1.43.93.72,1.24,1.23,1.24,1.92,0,.6-.24,1.02-.6,1.02-.22,0-.36-.12-.55-.48-.83-1.58-1.31-2.22-2.62-3.57l.26-.33h0Z"/>
          <path class="cls-1" d="m89.49,89.3c2.29.6,3.67,1.17,4.6,1.88.55.4.81.95.81,1.7,0,.83-.26,1.4-.67,1.4-.26,0-.38-.12-1.02-1-1.17-1.62-2.03-2.45-3.88-3.68l.17-.3h0Zm16.94,1.43c-1.19,2.35-2.64,4.32-5,6.73-2.19,2.22-3.67,3.48-6.69,5.7-1.12.83-1.24.93-1.41,1.15-.38.48-.53.6-.83.6-.98,0-2.79-2.4-2.79-3.68,0-.15.02-.25.12-.5.48.75.53.8.86,1.1.36.35.69.53.95.53.41,0,1.14-.33,2.31-1.05,2.67-1.62,3.6-2.33,5.69-4.13,2.93-2.5,4.36-4.02,6.41-6.68l.38.23h0Z"/>
          <path class="cls-1" d="m113.31,106.68c2.26-1.55,3.1-2.2,4.46-3.48,1.72-1.62,2.88-2.95,4-4.53-.38-.08-.53-.2-1.02-1-1-1.58-1.79-2.48-3.31-3.72-1.69,1.75-2.95,2.82-4.41,3.72l-.26-.38c1.69-1.53,3.12-3.12,4.6-5.18,1.5-2.1,2.36-3.7,2.36-4.35,0-.57-.41-.98-1.53-1.5.24-.1.34-.12.53-.12.5,0,1.41.3,2.12.72.67.38.98.72.98,1.05,0,.35-.22.72-1.12,1.92.29.08.43.1.67.1.55,0,1.38-.15,3.17-.55,1.24-.27,1.45-.35,1.88-.68.12-.08.26-.12.38-.12.31,0,.71.25,1.33.85.41.4.64.78.64,1.02,0,.18-.1.3-.34.5-.29.25-.38.4-.79,1.15-2.45,4.8-4.96,8.18-8.05,10.9-2.03,1.75-4.05,3.1-6.1,4.02l-.19-.38h0Zm11.36-16.38c-1.29.33-2.02.53-2.19.6-.41.15-.53.18-.74.18-.41,0-.83-.2-1.43-.68-.9,1.28-1.53,2.05-2.52,3.15,1.18.53,1.94.91,2.29,1.13,1.05.6,1.6,1.15,2.07,1.95.22.4.26.6.31,1.13,1.69-2.37,3.27-5.37,4.05-7.8-.6.05-1.02.15-1.84.35Z"/>
          <path class="cls-1" d="m134.98,105c1.31-1.28,2.26-2.73,3.19-4.75.9-1.98,1.65-5.05,1.65-6.78,0-.98-.41-1.47-1.62-1.95.26-.18.38-.23.64-.23.53,0,1.09.2,1.79.63.88.55,1.29.98,1.29,1.38,0,.2-.05.4-.31,1.15-.01.07-.09.36-.24.87-.76,2.63-.98,3.25-1.62,4.6-1.14,2.37-2.48,3.98-4.5,5.35l-.26-.27h0Zm20.34-9.98c-.74,1.32-1.36,2.15-2.59,3.53-1.38,1.55-3.57,3.55-5.05,4.58-.45.33-1.14.9-1.36,1.13-.19.2-.31.27-.48.27-.55,0-1.43-1.3-1.43-2.07,0-.05.05-.3.17-.78.14-.57.22-2.8.22-6.78,0-5.68-.1-6-1.84-6.4.24-.3.41-.38.76-.38.57,0,1.31.27,2.1.78.69.45.98.8.98,1.15,0,.12-.02.23-.19.68-.12.33-.24,1.17-.34,2.45-.1,1.05-.31,6.58-.31,7.53,0,.33,0,.6.05,1.15,2.76-1.13,6.27-3.9,9.01-7.08l.31.25h0Z"/>
          <path class="cls-1" d="m160.78,97.38c1.77-1.55,3.34-3.5,5-6.13.98-1.55,1.57-2.82,1.57-3.38,0-.33-.1-.53-.45-.85-.21-.18-.4-.33-.57-.45-.18-.12-.32-.19-.43-.23.22-.12.31-.15.45-.15.53,0,1.31.27,1.95.68.76.45,1.12.87,1.12,1.28,0,.3-.02.33-1.29,2.28.31.08.45.1.62.1.48,0,1.65-.2,2.86-.5.98-.25,1.38-.4,1.88-.68.19-.12.26-.15.41-.15.57,0,1.93,1.3,1.93,1.85,0,.23-.07.35-.36.63-.41.38-.53.57-1.14,1.77-2.1,4.13-4.12,6.85-7.03,9.4-2.05,1.83-3.83,3-5.91,3.9l-.17-.35c1.91-1.23,3.34-2.45,5.26-4.47,2.88-3,5.12-6.4,6.5-9.9.24-.55.38-1.08.38-1.28,0-.1-.07-.18-.22-.18-.36,0-1.86.4-3.03.8-.43.15-.57.18-.79.18-.5,0-1-.25-1.48-.72-1.84,2.75-4.26,5.18-6.86,6.85l-.24-.3h.01Z"/>
          <path class="cls-1" d="m186.66,87.9c.57,0,1.6.35,2.24.78.41.27.62.57.62.87,0,.08-.05.33-.07.55-.12.57-.22,2.52-.22,4.3,0,.33,0,.9.02,1.9v.85c0,.8-.02,1.08-.07,1.35-.05.35-.24.55-.48.55-.31,0-.62-.3-.9-.85-.26-.5-.43-1.08-.43-1.4,0-.18.02-.25.1-.55.22-.68.31-2.1.31-4.08,0-1.83-.1-2.43-.45-3-.29-.5-.5-.65-1.41-1.08.29-.18.38-.2.74-.2h0Zm2.5,18.93c2.38-1.7,3.74-3.1,4.81-4.98,1.33-2.37,1.69-4.53,1.69-10.43,0-2.5-.1-3.3-.45-3.78-.31-.4-.86-.7-1.72-.9.34-.3.53-.38.98-.38.57,0,1.69.33,2.43.7.6.3.86.63.86,1,0,.12-.05.32-.14.6-.19.6-.31,2.25-.41,5.35-.12,3.63-.26,4.77-.76,6.25-1,2.88-3.55,5.37-7.1,6.88l-.19-.33h0Z"/>
          <path class="cls-1" d="m209.17,101.1c.36,0,.98-.05,2.03-.18,3.5-.38,5.57-.55,8.5-.7,2.24-.1,2.38-.1,3.22-.33.29-.08.5-.1.64-.1.74,0,2.22,1.28,2.22,1.9,0,.33-.26.55-.67.55-.19,0-.26,0-1.19-.2-1.62-.38-3.53-.55-5.55-.55-2.71,0-6.88.7-8.57,1.45-.38.18-.48.2-.74.2-.57,0-1.26-.53-1.88-1.43-.41-.6-.67-1.28-.67-1.7,0-.08.05-.24.14-.48.81,1.25,1.31,1.55,2.52,1.55h0Zm1.09-10.83c1.09,1.13,1.64,1.4,2.91,1.4,2.05,0,5.29-.68,6.55-1.4.19-.1.29-.12.38-.12.29,0,.83.3,1.31.68.34.27.45.48.45.75,0,.4-.31.53-1.53.7-3.15.48-5.12.68-6.48.68-1.79,0-2.59-.53-3.91-2.45l.31-.23h0Z"/>
          <path class="cls-1" d="m233.3,93.53c2.38,1.53,3.31,2.48,3.31,3.42,0,.75-.38,1.45-.76,1.45-.24,0-.38-.18-.6-.7-.64-1.65-.98-2.22-2.19-3.93l.24-.25h0Zm2.22,12.85c1.62-1.3,2.38-2.05,3.55-3.42,1.95-2.3,3.57-4.92,4.6-7.43.34-.83.45-1.2.45-1.58,0-.57-.24-.85-1.24-1.32.24-.18.36-.23.57-.23.55,0,1.29.3,2,.8.64.45.9.78.9,1.15,0,.25-.05.33-.34.63-.14.15-.5.75-.83,1.35-1.69,3.05-2.07,3.65-3.29,5.18-1.91,2.43-3.95,4.15-6.15,5.25l-.24-.38h0Zm2.05-13.76c.88.48,1.48.87,2.1,1.45.64.55.88,1,.88,1.55,0,.75-.41,1.53-.79,1.53-.26,0-.41-.2-.57-.78-.45-1.5-.98-2.5-1.84-3.48l.22-.27h0Z"/>
          <path class="cls-1" d="m256.07,97.38c1.77-1.55,3.34-3.5,5-6.13.98-1.55,1.57-2.82,1.57-3.38,0-.33-.1-.53-.45-.85-.21-.18-.4-.33-.57-.45-.18-.12-.32-.19-.43-.23.22-.12.31-.15.45-.15.53,0,1.31.27,1.95.68.76.45,1.12.87,1.12,1.28,0,.3-.02.33-1.29,2.28.31.08.45.1.62.1.48,0,1.65-.2,2.86-.5.98-.25,1.38-.4,1.88-.68.19-.12.26-.15.41-.15.57,0,1.93,1.3,1.93,1.85,0,.23-.07.35-.36.63-.41.38-.53.57-1.14,1.77-2.1,4.13-4.12,6.85-7.03,9.4-2.05,1.83-3.83,3-5.91,3.9l-.17-.35c1.91-1.23,3.34-2.45,5.26-4.47,2.88-3,5.12-6.4,6.5-9.9.24-.55.38-1.08.38-1.28,0-.1-.07-.18-.22-.18-.36,0-1.86.4-3.03.8-.43.15-.57.18-.79.18-.5,0-1-.25-1.48-.72-1.84,2.75-4.26,5.18-6.86,6.85l-.24-.3h.01Z"/>
        </g>
        <path class="cls-2" d="m19.76,60.7c-7.77,9.48-20.41,26-13.92,38.58,10.95,20.78,68.44,22.22,90.39,23.38,61.25,1.9,122.72-1.94,183.94-4.02l.03.35c-67.99,5.1-136.39,10.6-204.56,5.88-19.35-1.77-64.01-5.63-72.09-25.93-2.95-7.39-.17-15.59,3.6-22.15,3.4-5.95,7.76-11.28,12.36-16.33l.26.24h0Z"/>
      </g>
    </g>
  </g>
</svg>