<?xml version="1.0" encoding="UTF-8"?>
<svg id="_レイヤー_2" data-name="レイヤー 2" xmlns="http://www.w3.org/2000/svg" xmlns:xlink="http://www.w3.org/1999/xlink" viewBox="0 0 212.15 95.91">
  <defs>
    <style>
      .cls-1 {
        fill: url(#_名称未設定グラデーション_6);
      }

      .cls-1, .cls-2, .cls-3 {
        stroke-width: 0px;
      }

      .cls-2 {
        fill: #a4d165;
      }

      .cls-3 {
        fill: #fff;
      }
    </style>
    <linearGradient id="_名称未設定グラデーション_6" data-name="名称未設定グラデーション 6" x1="1.74" y1="70.85" x2="212.15" y2="70.85" gradientUnits="userSpaceOnUse">
      <stop offset="0" stop-color="#fff"/>
      <stop offset=".45" stop-color="#fff" stop-opacity=".99"/>
      <stop offset=".61" stop-color="#fff" stop-opacity=".97"/>
      <stop offset=".73" stop-color="#fff" stop-opacity=".92"/>
      <stop offset=".82" stop-color="#fff" stop-opacity=".85"/>
      <stop offset=".9" stop-color="#fff" stop-opacity=".77"/>
      <stop offset=".96" stop-color="#fff" stop-opacity=".68"/>
      <stop offset=".96" stop-color="#fff" stop-opacity=".65"/>
      <stop offset=".97" stop-color="#fff" stop-opacity=".56"/>
      <stop offset=".98" stop-color="#fff" stop-opacity=".41"/>
      <stop offset=".99" stop-color="#fff" stop-opacity=".21"/>
      <stop offset=".99" stop-color="#fff" stop-opacity="0"/>
    </linearGradient>
  </defs>
  <g id="_フッター" data-name="フッター">
    <g id="_ロゴ画像" data-name="ロゴ画像">
      <g>
        <path class="cls-3" d="m38.8,0c-4.72.09-7.03,3.31-7.54,6.24C30.74,3.31,28.43.09,23.71,0c-4.35-.08-7.95,3.15-7.95,9.05,0,7.57,8.87,11.07,14.94,16.73.21.2.16.19.16.19.1.12.24.19.39.19h0c.15,0,.29-.07.39-.19,0,0-.05,0,.16-.19,6.07-5.66,14.94-9.15,14.94-16.73C46.74,3.15,43.15-.08,38.79,0h0Z"/>
        <path class="cls-3" d="m62.91,37.98c-.09-4.72-3.31-7.03-6.24-7.54,2.93-.51,6.16-2.82,6.24-7.54.08-4.35-3.15-7.95-9.05-7.95-7.57,0-11.07,8.87-16.73,14.94-.2.21-.19.16-.19.16-.12.1-.19.24-.19.39h0c0,.15.07.29.19.39,0,0,0-.05.19.16,5.66,6.07,9.15,14.94,16.73,14.94,5.9,0,9.13-3.6,9.05-7.95h0Z"/>
        <path class="cls-3" d="m0,22.89c.09,4.72,3.31,7.03,6.24,7.54C3.31,30.94.09,33.25,0,37.98c-.08,4.35,3.15,7.95,9.05,7.95,7.57,0,11.07-8.87,16.73-14.94.2-.21.19-.16.19-.16.12-.1.19-.24.19-.39h0c0-.15-.07-.29-.19-.39,0,0,0,.05-.19-.16-5.66-6.07-9.15-14.94-16.73-14.94C3.15,14.94-.08,18.54,0,22.89h0Z"/>
        <path class="cls-3" d="m23.58,60.88c4.72-.09,7.03-3.31,7.54-6.24.51,2.93,2.82,6.16,7.54,6.24,4.35.08,7.95-3.15,7.95-9.05,0-7.57-8.87-11.07-14.94-16.73-.21-.2-.16-.19-.16-.19-.1-.12-.24-.19-.39-.19h0c-.15,0-.29.07-.39.19,0,0,.05,0-.16.19-6.07,5.66-14.94,9.15-14.94,16.73,0,5.9,3.6,9.13,7.95,9.05h0Z"/>
        <g>
          <path class="cls-3" d="m91.26,10.84c1.03,0,2.18.18,3.42.54,1.45.4,2.14,1.03,2.14,1.93,0,.24-.11.66-.34,1.26-.47,1.39-.86,4.17-.86,6.46v.85c.43.4.64.49,1.15.49,1.62,0,4.92-1.35,6.5-2.65.47-.36.68-.49.94-.49.38,0,1.24.27,1.84.58.68.4.9.67.9,1.08,0,.67-.55,1.03-2.52,1.79-2.31.9-4.36,1.39-5.94,1.39-1.24,0-1.92-.27-2.86-1.12v1.97c0,3.55.21,8.79.47,11.71,3.33.58,6.5,1.75,9.01,3.27,1.84,1.08,2.65,2.29,2.65,3.86,0,1.08-.3,1.7-.86,1.7-.3,0-.55-.18-1.03-.58-3.63-3.23-5.64-4.44-9.61-5.7.06,1.41.09,2.38.09,2.92,0,2.2-.98,3.63-3.03,4.44-1.03.4-2.82.67-4.36.67-4.49,0-7.31-1.88-7.31-4.89,0-2.15,1.45-3.86,4.14-4.94,1.67-.67,3.97-1.08,6.19-1.08.34,0,.9,0,1.62.04-.17-12.02-.37-19.03-.6-21.04-.3-2.6-.94-3.32-3.72-3.81.68-.54,1.03-.67,1.96-.67h0Zm-.94,27.59c-4.4,0-7.56,1.57-7.56,3.81,0,1.79,1.75,2.83,4.78,2.83,2.48,0,4.53-.72,5.34-1.84.55-.72.68-1.66.68-4.71-1.37-.09-1.88-.09-3.25-.09Z"/>
          <path class="cls-3" d="m133.86,42.95c3.93-1.03,6.75-2.15,9.44-3.77,5-2.96,7.86-7.36,7.86-12.07s-3.16-7.53-7.82-7.53c-5,0-11.54,2.87-17.17,7.49-.68.58-1.11.76-1.62.76-2.01,0-5.13-3.14-5.13-5.16,0-.31.08-.58.34-1.12.43.94.68,1.26,1.2,1.66.64.49,1.15.72,1.75.72,1.11,0,2.73-.49,5.17-1.61,6.75-3.09,11.19-4.31,15.64-4.31,6.5,0,10.94,3.99,10.94,9.87,0,5.56-3.59,10.36-9.83,13.14-3.25,1.44-6.37,2.2-10.55,2.6l-.21-.67Z"/>
          <path class="cls-2" d="m178.68,35.64c0-1.39-.04-1.84-.17-3.09,3.85.49,4.53.67,4.53,1.17,0,.31-.3.49-1.58.9v1.93h11.62c1.11-1.3,1.45-1.66,2.65-2.87,1.71,1.39,2.22,1.84,3.85,3.27.13.18.21.31.21.4,0,.13-.17.22-.43.22h-17.39c1.58,1.39,2.48,2.02,4.19,3,4.19,2.29,7.22,3.09,15,3.95v.67c-1.75.45-2.35,1.03-3.25,3.18-4.57-1.44-7.13-2.65-10.3-4.71-2.95-1.93-4.66-3.5-6.15-5.7v3.72c0,1.59.06,3.83.17,6.73,0,.72-.38.85-2.01.85-.9,0-1.07-.09-1.07-.63.08-3.11.13-5.34.13-6.68v-2.92c-2.86,2.74-5.09,4.4-8.25,6.1-2.99,1.61-5.34,2.56-9.44,3.68l-.21-.58c5.04-2.29,7.43-3.68,10.51-5.96,2.05-1.57,3.29-2.65,5.21-4.71h-10.64c-1.45,0-2.35.09-3.76.31l-.21-1.7c1.45.31,2.05.36,3.97.36h12.82v-.9h0Zm.09-14.89c0-2.02-.04-2.56-.13-4.13,4.1.63,4.32.67,4.32,1.12,0,.31-.17.4-1.5.81v2.2h7.05c0-1.66,0-2.29-.09-4.13,3.46.49,3.63.54,4.06.72.26.13.43.27.43.45,0,.31-.34.49-1.67.81v2.15h2.82c.98-1.17,1.28-1.52,2.31-2.69,1.62,1.3,2.1,1.7,3.68,3.14.13.13.17.22.17.36s-.13.22-.38.22h-8.59c0,2.3.01,4.25.04,5.83v.13c0,.45-.43.58-1.88.58-.68,0-.9-.09-.9-.36v-1.08h-7.05v1.03c0,.49-.3.58-1.92.58-.77,0-.9-.09-.9-.49.06-1.38.09-3.45.09-6.23h-7.09v8.79h20.55c1.11-1.17,1.45-1.52,2.56-2.65,1.62,1.26,2.14,1.66,3.59,3,.17.18.26.31.26.4,0,.18-.17.27-.43.27h-26.53v.54c0,.58-.26.67-1.84.67-.94,0-1.03-.04-1.03-.49.08-3.29.13-6.24.13-8.84v-1.7h-4.02c-1.28,0-2.35.09-3.46.27l-.21-1.75c1.45.36,2.48.45,3.85.45h3.85c0-2.24-.04-2.65-.13-4.13,1.15.18,2.44.36,3.37.54.86.13,1.07.27,1.07.54,0,.36-.38.58-1.58.85v2.2h7.13,0Zm-5.43-10.41c0-.85,0-1.3-.09-2.47,2.99.42,4.49.78,4.49,1.08,0,.36-.34.54-1.71.94v2.38h8.54v-1.7c0-1.12,0-1.7-.09-2.74,4.27.63,4.61.72,4.61,1.17,0,.36-.51.63-1.84.94v2.33h5.85c1.2-1.39,1.58-1.79,2.73-3,1.75,1.44,2.27,1.88,3.97,3.41.17.18.21.27.21.36,0,.18-.17.27-.47.27h-12.31v.63c0,.45,0,1.03.04,1.84,0,.49-.26.58-2.1.58-.6,0-.68-.09-.68-.49.04-1.21.04-1.61.04-2.56h-8.54v2.69c0,.49-.34.58-1.75.58-.9,0-1.03-.04-1.03-.49.04-.63.09-1.57.09-2.78h-7.48c-1.84,0-2.48.04-3.97.27l-.26-1.66c1.75.31,2.44.36,4.23.36h7.48v-1.93h0Zm8.12,11.44v4.08h7.05v-4.08h-7.05Z"/>
        </g>
        <g>
          <path class="cls-3" d="m51.8,81.06c1.19-1.38,1.96-2.71,2.62-4.47.5-1.38.87-2.97.87-3.86,0-.45-.11-.66-.47-.93-1.1.11-3.07.7-4,1.19-.31.15-.38.19-.56.19-.34,0-.71-.23-1.14-.72-.41-.45-.61-.83-.61-1.14,0-.09.02-.19.07-.36.38.59.87.87,1.48.87.27,0,1.29-.16,3.08-.49,1.46-.25,2.2-.34,5.56-.7.32-.04.87-.15,1.41-.32.27-.09.29-.09.45-.09.25,0,.59.09.96.28.5.25.85.6.85.87,0,.23-.2.38-.5.38-.13,0-.2,0-.45-.06-.72-.15-1.91-.25-2.9-.25-1.05,0-2.02.06-2.96.19.83.47,1.19.87,1.19,1.31,0,.68-.52,2.39-1.16,3.71-.99,2.12-1.91,3.31-3.57,4.6l-.2-.21h0Zm-.34-14.62c.76.74,1.35,1.02,2.17,1.02,1.16,0,2.81-.42,3.79-.93.2-.11.36-.15.54-.15.47,0,1.23.6,1.23.99,0,.25-.22.34-.94.51-1.19.26-3.16.49-4.13.49-1.34,0-2.05-.42-2.92-1.74l.27-.19h0Zm8.26-1.29c.67.38,1.16.74,1.6,1.17.65.6.9,1.04.9,1.5s-.25.8-.56.8c-.16,0-.43-.41-.81-1.23-.31-.66-.89-1.48-1.37-1.99l.23-.25Zm1.86-1.1c.65.3,1.17.62,1.71,1.08.71.55.94.93.94,1.46,0,.45-.18.78-.45.78-.16,0-.27-.09-.41-.36-.63-1.19-.99-1.68-1.98-2.71l.2-.25h0Z"/>
          <path class="cls-3" d="m67.76,67.61c1.73.45,2.78.89,3.48,1.42.41.3.61.72.61,1.29,0,.62-.2,1.06-.5,1.06-.2,0-.29-.09-.78-.76-.89-1.23-1.53-1.85-2.94-2.78l.13-.23h0Zm12.82,1.08c-.9,1.78-2,3.27-3.79,5.1-1.66,1.68-2.78,2.63-5.07,4.32-.85.62-.94.7-1.07.87-.29.36-.4.45-.63.45-.74,0-2.11-1.82-2.11-2.78,0-.11.02-.19.09-.38.36.57.4.6.65.83.27.26.52.4.72.4.31,0,.87-.25,1.75-.8,2.02-1.23,2.72-1.76,4.31-3.12,2.22-1.89,3.3-3.05,4.85-5.06l.29.17h0Z"/>
          <path class="cls-3" d="m85.79,80.78c1.71-1.17,2.35-1.67,3.37-2.63,1.3-1.23,2.18-2.24,3.03-3.43-.29-.06-.4-.15-.78-.76-.76-1.19-1.35-1.87-2.51-2.82-1.28,1.33-2.24,2.14-3.34,2.82l-.2-.28c1.28-1.16,2.36-2.37,3.48-3.92,1.14-1.59,1.78-2.8,1.78-3.29,0-.43-.31-.74-1.16-1.14.18-.08.25-.09.4-.09.38,0,1.07.23,1.6.55.5.28.74.55.74.8,0,.26-.16.55-.85,1.46.22.06.32.08.5.08.41,0,1.05-.11,2.4-.42.94-.21,1.1-.26,1.43-.51.09-.06.2-.09.29-.09.23,0,.54.19,1.01.64.31.3.49.59.49.78,0,.13-.07.23-.25.38-.22.19-.29.3-.59.87-1.86,3.64-3.75,6.19-6.1,8.26-1.53,1.33-3.07,2.35-4.62,3.05l-.14-.28h0Zm8.6-12.4c-.97.25-1.53.4-1.66.45-.31.11-.4.13-.56.13-.31,0-.63-.15-1.08-.51-.68.97-1.16,1.55-1.91,2.39.89.4,1.47.69,1.73.85.8.45,1.21.87,1.57,1.48.16.3.2.45.23.85,1.28-1.8,2.47-4.07,3.07-5.91-.45.04-.78.11-1.39.26Z"/>
          <path class="cls-3" d="m102.21,79.51c.99-.97,1.71-2.06,2.42-3.6.68-1.5,1.25-3.83,1.25-5.13,0-.74-.31-1.12-1.23-1.48.2-.13.29-.17.49-.17.4,0,.83.15,1.35.47.67.42.98.74.98,1.04,0,.15-.04.3-.23.87-.01.05-.07.27-.18.66-.58,1.99-.74,2.46-1.23,3.49-.87,1.8-1.87,3.01-3.41,4.05l-.2-.21h0Zm15.4-7.55c-.56,1-1.03,1.63-1.96,2.67-1.05,1.17-2.71,2.69-3.83,3.46-.34.25-.87.68-1.03.85-.14.15-.23.21-.36.21-.41,0-1.08-.99-1.08-1.57,0-.04.04-.23.13-.59.11-.43.16-2.12.16-5.13,0-4.3-.07-4.54-1.39-4.85.18-.23.31-.28.58-.28.43,0,.99.21,1.59.59.52.34.74.6.74.87,0,.09-.02.17-.14.51-.09.25-.18.89-.25,1.85-.07.8-.23,4.98-.23,5.7,0,.25,0,.45.04.87,2.09-.85,4.74-2.95,6.82-5.36l.23.19h0Z"/>
          <path class="cls-3" d="m121.74,73.73c1.34-1.17,2.53-2.65,3.79-4.64.74-1.17,1.19-2.14,1.19-2.56,0-.25-.07-.4-.34-.64-.16-.14-.3-.25-.43-.34-.13-.09-.24-.15-.32-.17.16-.09.23-.11.34-.11.4,0,.99.21,1.48.51.58.34.85.66.85.97,0,.23-.02.25-.98,1.72.23.06.34.08.47.08.36,0,1.25-.15,2.17-.38.74-.19,1.05-.3,1.42-.51.14-.09.2-.11.31-.11.43,0,1.46.99,1.46,1.4,0,.17-.05.26-.27.47-.31.28-.4.43-.87,1.34-1.59,3.12-3.12,5.19-5.32,7.12-1.55,1.38-2.9,2.27-4.47,2.95l-.13-.26c1.44-.93,2.53-1.85,3.99-3.39,2.18-2.27,3.88-4.85,4.93-7.5.18-.42.29-.82.29-.97,0-.08-.05-.13-.16-.13-.27,0-1.41.3-2.29.6-.32.11-.43.13-.59.13-.38,0-.76-.19-1.12-.55-1.39,2.08-3.23,3.92-5.2,5.19l-.18-.23h.01Z"/>
          <path class="cls-3" d="m141.33,66.55c.43,0,1.21.26,1.7.59.31.21.47.43.47.66,0,.06-.04.25-.05.42-.09.43-.16,1.91-.16,3.26,0,.25,0,.68.02,1.44v.64c0,.6-.02.82-.05,1.02-.04.26-.18.42-.36.42-.23,0-.47-.23-.68-.64-.2-.38-.32-.82-.32-1.06,0-.13.02-.19.07-.42.16-.51.23-1.59.23-3.09,0-1.38-.07-1.84-.34-2.27-.22-.38-.38-.49-1.07-.82.22-.13.29-.15.56-.15h0Zm1.89,14.33c1.8-1.29,2.83-2.35,3.64-3.77,1.01-1.8,1.28-3.43,1.28-7.9,0-1.89-.07-2.5-.34-2.86-.23-.3-.65-.53-1.3-.68.25-.23.4-.28.74-.28.43,0,1.28.25,1.84.53.45.23.65.47.65.76,0,.09-.04.24-.11.45-.14.45-.23,1.7-.31,4.05-.09,2.75-.2,3.62-.58,4.73-.76,2.18-2.69,4.07-5.38,5.21l-.14-.25h0Z"/>
          <path class="cls-3" d="m158.37,76.55c.27,0,.74-.04,1.53-.13,2.65-.28,4.22-.42,6.44-.53,1.69-.08,1.8-.08,2.44-.25.22-.06.38-.08.49-.08.56,0,1.68.97,1.68,1.44,0,.25-.2.42-.5.42-.14,0-.2,0-.9-.15-1.23-.28-2.67-.42-4.2-.42-2.05,0-5.21.53-6.49,1.1-.29.13-.36.15-.56.15-.43,0-.96-.4-1.42-1.08-.31-.45-.5-.97-.5-1.29,0-.06.04-.18.11-.36.61.95.99,1.17,1.91,1.17h0Zm.83-8.2c.83.85,1.24,1.06,2.2,1.06,1.55,0,4-.51,4.96-1.06.14-.08.22-.09.29-.09.22,0,.63.23.99.51.25.21.34.36.34.57,0,.3-.23.4-1.16.53-2.38.36-3.88.51-4.91.51-1.35,0-1.96-.4-2.96-1.85l.23-.17h0Z"/>
          <path class="cls-3" d="m176.65,70.81c1.8,1.16,2.51,1.87,2.51,2.59,0,.57-.29,1.1-.58,1.1-.18,0-.29-.13-.45-.53-.49-1.25-.74-1.68-1.66-2.97l.18-.19h0Zm1.68,9.73c1.23-.99,1.8-1.55,2.69-2.59,1.48-1.74,2.71-3.73,3.48-5.62.25-.62.34-.91.34-1.19,0-.43-.18-.64-.94-1,.18-.13.27-.17.43-.17.41,0,.98.23,1.52.6.49.34.68.59.68.87,0,.19-.04.25-.25.47-.11.11-.38.57-.63,1.02-1.28,2.31-1.57,2.76-2.49,3.92-1.44,1.84-2.99,3.14-4.65,3.98l-.18-.28h0Zm1.55-10.41c.67.36,1.12.66,1.59,1.1.49.42.67.76.67,1.17,0,.57-.31,1.16-.59,1.16-.2,0-.31-.15-.43-.59-.34-1.14-.74-1.89-1.39-2.63l.16-.21h0Z"/>
          <path class="cls-3" d="m193.89,73.73c1.34-1.17,2.53-2.65,3.79-4.64.74-1.17,1.19-2.14,1.19-2.56,0-.25-.07-.4-.34-.64-.16-.14-.3-.25-.43-.34-.13-.09-.24-.15-.32-.17.16-.09.23-.11.34-.11.4,0,.99.21,1.48.51.58.34.85.66.85.97,0,.23-.02.25-.98,1.72.23.06.34.08.47.08.36,0,1.25-.15,2.17-.38.74-.19,1.05-.3,1.42-.51.14-.09.2-.11.31-.11.43,0,1.46.99,1.46,1.4,0,.17-.05.26-.27.47-.31.28-.4.43-.87,1.34-1.59,3.12-3.12,5.19-5.32,7.12-1.55,1.38-2.9,2.27-4.47,2.95l-.13-.26c1.44-.93,2.53-1.85,3.99-3.39,2.18-2.27,3.88-4.85,4.93-7.5.18-.42.29-.82.29-.97,0-.08-.05-.13-.16-.13-.27,0-1.41.3-2.29.6-.32.11-.43.13-.59.13-.38,0-.76-.19-1.12-.55-1.39,2.08-3.23,3.92-5.2,5.19l-.18-.23h.01Z"/>
        </g>
        <path class="cls-1" d="m14.96,45.96c-5.88,7.18-15.46,19.69-10.54,29.21,8.29,15.74,51.82,16.83,68.44,17.7,46.38,1.44,92.92-1.47,139.27-3.04l.02.27c-51.48,3.86-103.27,8.03-154.89,4.45-14.65-1.34-48.47-4.26-54.59-19.64-2.23-5.59-.13-11.8,2.72-16.77,2.58-4.5,5.88-8.54,9.36-12.36l.2.18h0Z"/>
      </g>
    </g>
  </g>
</svg>