<?xml version="1.0" encoding="UTF-8"?>
<svg id="_レイヤー_2" data-name="レイヤー 2" xmlns="http://www.w3.org/2000/svg" viewBox="0 0 227.33 103.03">
  <defs>
    <style>
      .cls-1 {
        stroke: #fff;
        stroke-miterlimit: 10;
      }

      .cls-1, .cls-2 {
        fill: #fff;
      }

      .cls-2 {
        stroke-width: 0px;
      }
    </style>
  </defs>
  <g id="_メニューOPEN" data-name="メニューOPEN">
    <g id="_ロゴ_見出し_" data-name="ロゴ(見出し１）">
      <path class="cls-2" d="m41.48,0c-5.05.09-7.52,3.54-8.07,6.68C32.86,3.54,30.39.09,25.34,0c-4.65-.09-8.5,3.37-8.5,9.67,0,8.09,9.49,11.83,15.97,17.88.23.21.17.2.17.2.11.13.26.2.42.2h0c.16,0,.31-.08.42-.2,0,0-.05,0,.17-.2,6.49-6.05,15.97-9.78,15.97-17.88C49.97,3.37,46.12-.09,41.47,0h0Z"/>
      <path class="cls-2" d="m67.25,40.6c-.09-5.05-3.54-7.52-6.68-8.07,3.14-.55,6.58-3.02,6.68-8.07.09-4.65-3.37-8.5-9.67-8.5-8.09,0-11.83,9.49-17.88,15.97-.21.23-.2.17-.2.17-.13.11-.2.26-.2.42h0c0,.16.08.31.2.42,0,0,0-.05.2.17,6.05,6.49,9.78,15.97,17.88,15.97,6.3,0,9.76-3.85,9.67-8.5h0Z"/>
      <path class="cls-2" d="m0,24.47c.09,5.05,3.54,7.52,6.68,8.07C3.54,33.08.09,35.55,0,40.6c-.09,4.65,3.37,8.5,9.67,8.5,8.09,0,11.83-9.49,17.88-15.97.21-.23.2-.17.2-.17.13-.11.2-.26.2-.42h0c0-.16-.08-.31-.2-.42,0,0,0,.05-.2-.17-6.05-6.49-9.78-15.97-17.88-15.97C3.37,15.97-.09,19.82,0,24.47h0Z"/>
      <path class="cls-2" d="m25.21,65.08c5.05-.09,7.52-3.54,8.07-6.68.55,3.14,3.02,6.58,8.07,6.68,4.65.09,8.5-3.37,8.5-9.67,0-8.09-9.49-11.83-15.97-17.88-.23-.21-.17-.2-.17-.2-.11-.13-.26-.2-.42-.2h0c-.16,0-.31.08-.42.2,0,0,.05,0-.17.2-6.49,6.05-15.97,9.78-15.97,17.88,0,6.3,3.85,9.76,8.5,9.67h0Z"/>
      <path class="cls-2" d="m97.56,11.59c1.1,0,2.33.19,3.65.58,1.55.43,2.28,1.1,2.28,2.06,0,.25-.12.7-.36,1.34-.5,1.49-.91,4.46-.91,6.9v.91c.46.43.69.53,1.23.53,1.74,0,5.25-1.44,6.94-2.83.5-.38.73-.53,1-.53.41,0,1.33.29,1.96.63.73.43.96.72.96,1.15,0,.72-.59,1.1-2.69,1.92-2.47.96-4.66,1.49-6.35,1.49-1.33,0-2.05-.29-3.06-1.2v2.11c0,3.79.23,9.4.5,12.52,3.56.63,6.94,1.87,9.64,3.5,1.96,1.15,2.83,2.45,2.83,4.13,0,1.15-.32,1.82-.91,1.82-.32,0-.59-.19-1.1-.63-3.88-3.45-6.03-4.75-10.28-6.09.06,1.5.09,2.54.09,3.12,0,2.35-1.05,3.88-3.24,4.75-1.1.43-3.01.72-4.66.72-4.8,0-7.81-2.01-7.81-5.23,0-2.3,1.55-4.13,4.43-5.28,1.78-.72,4.25-1.15,6.62-1.15.36,0,.96,0,1.74.05-.18-12.85-.4-20.35-.64-22.49-.32-2.78-1-3.55-3.97-4.08.73-.58,1.1-.72,2.1-.72h0Zm-1,29.49c-4.7,0-8.08,1.68-8.08,4.08,0,1.92,1.87,3.02,5.12,3.02,2.65,0,4.84-.77,5.71-1.96.59-.77.73-1.78.73-5.04-1.46-.1-2.01-.1-3.47-.1Z"/>
      <path class="cls-2" d="m143.1,45.92c4.2-1.1,7.22-2.3,10.09-4.03,5.34-3.16,8.4-7.87,8.4-12.9s-3.38-8.05-8.36-8.05c-5.34,0-12.33,3.07-18.36,8.01-.73.63-1.19.81-1.74.81-2.15,0-5.48-3.36-5.48-5.52,0-.34.09-.63.36-1.2.46,1.01.73,1.34,1.28,1.78.69.53,1.23.77,1.87.77,1.19,0,2.92-.53,5.53-1.73,7.22-3.31,11.97-4.6,16.72-4.6,6.94,0,11.69,4.27,11.69,10.55,0,5.95-3.84,11.08-10.51,14.05-3.47,1.54-6.8,2.35-11.28,2.78l-.23-.72Z"/>
      <path class="cls-2" d="m191.01,38.1c0-1.49-.05-1.96-.18-3.31,4.11.53,4.84.72,4.84,1.25,0,.34-.32.53-1.69.96v2.06h12.42c1.19-1.39,1.55-1.78,2.83-3.07,1.83,1.49,2.38,1.96,4.11,3.5.14.19.23.34.23.43,0,.14-.18.24-.46.24h-18.59c1.69,1.49,2.65,2.16,4.48,3.21,4.48,2.45,7.72,3.31,16.03,4.22v.72c-1.87.48-2.51,1.1-3.47,3.4-4.89-1.54-7.63-2.83-11.01-5.04-3.15-2.06-4.98-3.74-6.58-6.09v3.98c0,1.7.06,4.09.18,7.19,0,.77-.41.91-2.15.91-.96,0-1.14-.1-1.14-.67.09-3.32.14-5.71.14-7.14v-3.12c-3.06,2.93-5.44,4.7-8.82,6.52-3.2,1.73-5.71,2.73-10.09,3.93l-.23-.63c5.39-2.45,7.95-3.93,11.24-6.38,2.19-1.68,3.52-2.83,5.57-5.04h-11.37c-1.55,0-2.51.1-4.02.34l-.23-1.82c1.55.34,2.19.38,4.25.38h13.7v-.96h0Zm.09-15.92c0-2.16-.05-2.73-.14-4.41,4.39.67,4.61.72,4.61,1.2,0,.34-.18.43-1.6.86v2.35h7.54c0-1.78,0-2.45-.09-4.41,3.7.53,3.88.58,4.34.77.28.14.46.29.46.48,0,.34-.36.53-1.78.86v2.3h3.01c1.05-1.25,1.37-1.63,2.47-2.88,1.74,1.39,2.24,1.82,3.93,3.36.14.14.18.24.18.38s-.14.24-.41.24h-9.18c0,2.46.02,4.54.05,6.23v.14c0,.48-.46.63-2.01.63-.73,0-.96-.1-.96-.38v-1.15h-7.54v1.1c0,.53-.32.63-2.05.63-.82,0-.96-.1-.96-.53.06-1.47.09-3.69.09-6.67h-7.58v9.4h21.97c1.19-1.25,1.55-1.63,2.74-2.83,1.74,1.34,2.28,1.78,3.84,3.21.18.19.28.34.28.43,0,.19-.18.29-.46.29h-28.36v.58c0,.63-.28.72-1.96.72-1,0-1.1-.05-1.1-.53.09-3.52.14-6.67.14-9.45v-1.82h-4.29c-1.37,0-2.51.1-3.7.29l-.23-1.87c1.55.38,2.65.48,4.11.48h4.11c0-2.4-.05-2.83-.14-4.41,1.23.19,2.6.38,3.61.58.91.14,1.14.29,1.14.58,0,.38-.41.63-1.69.91v2.35h7.63,0Zm-5.8-11.13c0-.91,0-1.39-.09-2.64,3.2.45,4.8.83,4.8,1.15,0,.38-.36.58-1.83,1.01v2.54h9.13v-1.82c0-1.2,0-1.82-.09-2.93,4.57.67,4.93.77,4.93,1.25,0,.38-.55.67-1.96,1.01v2.49h6.26c1.28-1.49,1.69-1.92,2.92-3.21,1.87,1.54,2.42,2.01,4.25,3.64.18.19.23.29.23.38,0,.19-.18.29-.5.29h-13.16v.67c0,.48,0,1.1.05,1.96,0,.53-.28.63-2.24.63-.64,0-.73-.1-.73-.53.05-1.29.05-1.73.05-2.73h-9.13v2.88c0,.53-.36.63-1.87.63-.96,0-1.1-.05-1.1-.53.05-.67.09-1.68.09-2.97h-7.99c-1.96,0-2.65.05-4.25.29l-.28-1.78c1.87.34,2.6.38,4.52.38h7.99v-2.06h0Zm8.68,12.23v4.36h7.54v-4.36h-7.54Z"/>
      <g>
        <path class="cls-2" d="m55.37,86.65c1.27-1.48,2.1-2.89,2.8-4.78.54-1.48.93-3.18.93-4.13,0-.49-.11-.71-.5-.99-1.18.12-3.28.75-4.28,1.28-.33.16-.4.2-.6.2-.37,0-.75-.24-1.21-.77-.44-.49-.66-.89-.66-1.21,0-.1.02-.2.08-.39.4.63.93.93,1.58.93.28,0,1.38-.18,3.3-.53,1.56-.26,2.35-.36,5.94-.75.35-.04.93-.16,1.5-.34.29-.1.31-.1.48-.1.27,0,.64.1,1.02.3.54.26.91.65.91.93,0,.24-.21.4-.54.4-.14,0-.21,0-.48-.06-.77-.16-2.04-.26-3.1-.26-1.12,0-2.16.06-3.16.2.89.51,1.27.93,1.27,1.4,0,.73-.56,2.55-1.24,3.97-1.06,2.27-2.04,3.54-3.82,4.92l-.21-.22h0Zm-.37-15.63c.81.79,1.45,1.09,2.31,1.09,1.24,0,3.01-.45,4.05-.99.21-.12.39-.16.58-.16.5,0,1.31.65,1.31,1.05,0,.26-.23.36-1,.55-1.27.28-3.38.53-4.41.53-1.43,0-2.2-.45-3.13-1.86l.29-.2h0Zm8.83-1.38c.71.4,1.24.79,1.71,1.25.69.65.96,1.11.96,1.6s-.27.85-.6.85c-.17,0-.46-.44-.87-1.31-.33-.71-.95-1.58-1.46-2.13l.25-.26Zm1.99-1.18c.69.33,1.25.67,1.83,1.15.75.59,1,.99,1,1.56,0,.49-.19.83-.48.83-.18,0-.29-.1-.44-.39-.68-1.28-1.06-1.8-2.12-2.89l.21-.26h0Z"/>
        <path class="cls-2" d="m72.43,72.28c1.85.49,2.97.95,3.72,1.52.44.33.66.77.66,1.38,0,.67-.21,1.13-.54,1.13-.21,0-.31-.1-.83-.81-.95-1.31-1.64-1.98-3.14-2.98l.14-.24h0Zm13.71,1.15c-.96,1.9-2.14,3.5-4.05,5.45-1.78,1.8-2.97,2.81-5.42,4.61-.91.67-1,.75-1.14.93-.31.39-.43.49-.68.49-.79,0-2.26-1.94-2.26-2.98,0-.12.02-.2.1-.4.39.61.43.65.69.89.29.28.56.43.77.43.33,0,.93-.26,1.87-.85,2.16-1.31,2.91-1.88,4.61-3.34,2.37-2.03,3.53-3.26,5.19-5.4l.31.18h0Z"/>
        <path class="cls-2" d="m91.71,86.35c1.83-1.25,2.51-1.78,3.61-2.81,1.39-1.31,2.33-2.39,3.24-3.66-.31-.06-.43-.16-.83-.81-.81-1.28-1.45-2-2.68-3.01-1.37,1.42-2.39,2.29-3.57,3.01l-.21-.3c1.37-1.24,2.53-2.53,3.72-4.19,1.21-1.7,1.91-3,1.91-3.52,0-.46-.33-.79-1.24-1.21.19-.08.27-.1.43-.1.4,0,1.14.24,1.71.59.54.3.79.59.79.85,0,.28-.18.59-.91,1.56.23.06.35.08.54.08.44,0,1.12-.12,2.56-.45,1-.22,1.18-.28,1.53-.55.1-.06.21-.1.31-.1.25,0,.58.2,1.08.69.33.33.52.63.52.83,0,.14-.08.24-.27.4-.23.2-.31.33-.64.93-1.99,3.89-4.01,6.62-6.52,8.83-1.64,1.42-3.28,2.51-4.94,3.26l-.15-.3h0Zm9.2-13.26c-1.04.27-1.63.43-1.78.49-.33.12-.43.14-.6.14-.33,0-.68-.16-1.16-.55-.73,1.03-1.24,1.66-2.04,2.55.95.43,1.57.73,1.85.91.85.49,1.29.93,1.68,1.58.18.33.21.49.25.91,1.37-1.92,2.64-4.35,3.28-6.32-.48.04-.83.12-1.49.28Z"/>
        <path class="cls-2" d="m109.26,84.99c1.06-1.03,1.83-2.21,2.58-3.85.73-1.6,1.33-4.09,1.33-5.49,0-.79-.33-1.19-1.31-1.58.21-.14.31-.18.52-.18.43,0,.89.16,1.45.51.71.45,1.04.79,1.04,1.11,0,.16-.04.33-.25.93-.01.05-.08.29-.19.71-.62,2.13-.79,2.63-1.31,3.73-.93,1.92-2,3.22-3.64,4.33l-.21-.22h0Zm16.47-8.08c-.6,1.07-1.1,1.74-2.1,2.85-1.12,1.25-2.89,2.88-4.09,3.7-.37.26-.93.73-1.1.91-.15.16-.25.22-.39.22-.44,0-1.16-1.05-1.16-1.68,0-.04.04-.24.14-.63.11-.46.18-2.27.18-5.49,0-4.6-.08-4.86-1.49-5.18.19-.24.33-.3.62-.3.46,0,1.06.22,1.7.63.56.36.79.65.79.93,0,.1-.02.18-.15.55-.1.26-.19.95-.27,1.98-.08.85-.25,5.32-.25,6.09,0,.26,0,.49.04.93,2.24-.91,5.07-3.16,7.29-5.73l.25.2h0Z"/>
        <path class="cls-2" d="m130.14,78.82c1.43-1.25,2.7-2.83,4.05-4.96.79-1.25,1.27-2.29,1.27-2.73,0-.26-.08-.43-.37-.69-.17-.15-.32-.27-.46-.36-.14-.1-.26-.16-.35-.18.18-.1.25-.12.37-.12.43,0,1.06.22,1.58.55.62.36.91.71.91,1.03,0,.24-.02.26-1.04,1.84.25.06.37.08.5.08.39,0,1.33-.16,2.31-.4.79-.2,1.12-.33,1.52-.55.15-.1.21-.12.33-.12.46,0,1.56,1.05,1.56,1.5,0,.18-.06.28-.29.51-.33.3-.43.46-.93,1.44-1.7,3.34-3.34,5.55-5.69,7.61-1.66,1.48-3.1,2.43-4.78,3.16l-.14-.28c1.54-.99,2.7-1.98,4.26-3.62,2.33-2.43,4.15-5.18,5.27-8.02.19-.45.31-.87.31-1.03,0-.08-.06-.14-.18-.14-.29,0-1.5.33-2.45.65-.35.12-.46.14-.64.14-.4,0-.81-.2-1.2-.59-1.49,2.23-3.45,4.19-5.55,5.55l-.19-.24h.01Z"/>
        <path class="cls-2" d="m151.08,71.15c.46,0,1.29.28,1.81.63.33.22.5.46.5.71,0,.06-.04.26-.06.45-.1.46-.18,2.04-.18,3.48,0,.26,0,.73.02,1.54v.69c0,.65-.02.87-.06,1.09-.04.28-.19.45-.39.45-.25,0-.5-.24-.73-.69-.21-.4-.35-.87-.35-1.13,0-.14.02-.2.08-.45.18-.55.25-1.7.25-3.3,0-1.48-.08-1.96-.37-2.43-.23-.4-.4-.53-1.14-.87.23-.14.31-.16.6-.16h0Zm2.03,15.32c1.93-1.38,3.03-2.51,3.89-4.03,1.08-1.92,1.37-3.66,1.37-8.44,0-2.03-.08-2.67-.37-3.06-.25-.33-.69-.57-1.39-.73.27-.24.43-.3.79-.3.46,0,1.37.26,1.97.57.48.24.69.51.69.81,0,.1-.04.26-.11.49-.15.49-.25,1.82-.33,4.33-.1,2.94-.21,3.86-.62,5.06-.81,2.33-2.87,4.35-5.75,5.57l-.15-.26h0Z"/>
        <path class="cls-2" d="m169.3,81.83c.29,0,.79-.04,1.64-.14,2.84-.3,4.51-.45,6.88-.57,1.81-.08,1.93-.08,2.6-.26.23-.06.4-.08.52-.08.6,0,1.79,1.03,1.79,1.54,0,.26-.21.45-.54.45-.15,0-.21,0-.96-.16-1.31-.3-2.85-.45-4.49-.45-2.2,0-5.57.57-6.94,1.18-.31.14-.39.16-.6.16-.46,0-1.02-.43-1.52-1.15-.33-.49-.54-1.03-.54-1.38,0-.07.04-.2.11-.39.65,1.01,1.06,1.25,2.04,1.25h0Zm.89-8.77c.89.91,1.33,1.13,2.35,1.13,1.66,0,4.28-.55,5.3-1.13.15-.08.23-.1.31-.1.23,0,.68.24,1.06.55.27.22.37.39.37.61,0,.33-.25.43-1.24.57-2.55.39-4.15.55-5.24.55-1.45,0-2.1-.43-3.16-1.98l.25-.18h0Z"/>
        <path class="cls-2" d="m188.84,75.7c1.93,1.24,2.68,2,2.68,2.77,0,.61-.31,1.18-.62,1.18-.19,0-.31-.14-.48-.57-.52-1.34-.79-1.8-1.78-3.18l.19-.2h0Zm1.79,10.41c1.31-1.05,1.93-1.66,2.87-2.77,1.58-1.86,2.89-3.99,3.72-6.01.27-.67.37-.97.37-1.28,0-.46-.19-.69-1-1.07.19-.14.29-.18.46-.18.44,0,1.04.24,1.62.65.52.36.73.63.73.93,0,.2-.04.26-.27.51-.11.12-.4.61-.68,1.09-1.37,2.47-1.68,2.95-2.66,4.19-1.54,1.96-3.2,3.36-4.98,4.25l-.19-.3h0Zm1.66-11.13c.71.39,1.2.71,1.7,1.18.52.45.71.81.71,1.25,0,.61-.33,1.24-.64,1.24-.21,0-.33-.16-.46-.63-.37-1.21-.79-2.03-1.49-2.81l.18-.22h0Z"/>
        <path class="cls-2" d="m207.27,78.82c1.43-1.25,2.7-2.83,4.05-4.96.79-1.25,1.27-2.29,1.27-2.73,0-.26-.08-.43-.37-.69-.17-.15-.32-.27-.46-.36-.14-.1-.26-.16-.35-.18.18-.1.25-.12.37-.12.43,0,1.06.22,1.58.55.62.36.91.71.91,1.03,0,.24-.02.26-1.04,1.84.25.06.37.08.5.08.39,0,1.33-.16,2.31-.4.79-.2,1.12-.33,1.52-.55.15-.1.21-.12.33-.12.46,0,1.56,1.05,1.56,1.5,0,.18-.06.28-.29.51-.33.3-.43.46-.93,1.44-1.7,3.34-3.34,5.55-5.69,7.61-1.66,1.48-3.1,2.43-4.78,3.16l-.14-.28c1.54-.99,2.7-1.98,4.26-3.62,2.33-2.43,4.15-5.18,5.27-8.02.19-.45.31-.87.31-1.03,0-.08-.06-.14-.18-.14-.29,0-1.5.33-2.45.65-.35.12-.46.14-.64.14-.4,0-.81-.2-1.2-.59-1.49,2.23-3.45,4.19-5.55,5.55l-.19-.24h.01Z"/>
      </g>
      <path class="cls-1" d="m15.99,49.13c-6.29,7.68-16.52,21.05-11.27,31.23,8.86,16.82,55.4,17.99,73.16,18.92,49.58,1.54,99.34-1.57,148.89-3.25l.02.29c-55.03,4.13-110.4,8.58-165.58,4.76-15.66-1.44-51.81-4.56-58.35-20.99-2.39-5.98-.14-12.62,2.91-17.93,2.75-4.81,6.28-9.13,10-13.22l.21.19h0Z"/>
    </g>
  </g>
</svg>