<?xml version="1.0" encoding="UTF-8"?>
<svg id="_レイヤー_2" data-name="レイヤー 2" xmlns="http://www.w3.org/2000/svg" viewBox="0 0 27.2 34.84">
  <defs>
    <style>
      .cls-1 {
        fill: #80a83f;
        stroke-width: 0px;
      }
    </style>
  </defs>
  <g id="_クリニック案内" data-name="クリニック案内">
    <path class="cls-1" d="m2.43,1.48C0,3.03-.48,7.88.44,11.84c.72,3.08,2.24,7.21,4.81,11.1,2.42,3.66,5.79,6.94,8.36,8.84,3.3,2.44,8.01,3.99,10.45,2.44,1.23-.79,3.06-2.93,3.15-3.31,0,0-1.07-1.63-1.31-1.98l-3.6-5.45c-.27-.41-1.95-.03-2.8.44-1.15.64-2.21,2.36-2.21,2.36-.79.45-1.45,0-2.83-.62-1.7-.77-3.6-3.15-5.12-5.3-1.39-2.24-2.82-4.92-2.84-6.75-.02-1.49-.16-2.27.58-2.79,0,0,2.03-.25,3.09-1.02.79-.57,1.82-1.92,1.55-2.33l-3.6-5.45C7.87,1.63,6.8,0,6.8,0c-.39-.08-3.13.69-4.37,1.47Z"/>
  </g>
</svg>